<svg width="320" height="512" viewBox="0 0 320 512" fill="none" xmlns="http://www.w3.org/2000/svg">
<path d="M0 64C0 46.3 14.3 32 32 32H272C285.2 32 297 40.1 301.8 52.4C306.6 64.7 303.3 78.7 293.6 87.6L162.3 208H184C259.1 208 320 268.9 320 344C320 419.1 259.1 480 184 480H105.4C63 480 24.2 456 5.3 418.1L3.4 414.3C-4.5 398.5 1.9 379.3 17.7 371.4C33.5 363.5 52.7 369.9 60.6 385.7L62.5 389.5C70.6 405.8 87.3 416 105.4 416H184C223.8 416 256 383.8 256 344C256 304.2 223.8 272 184 272H80C66.8 272 55 263.9 50.2 251.6C45.4 239.3 48.7 225.3 58.4 216.4L189.7 96H32C14.3 96 0 81.7 0 64Z" fill="black"/>
</svg>
