<svg width="320" height="512" viewBox="0 0 320 512" fill="none" xmlns="http://www.w3.org/2000/svg">
<g clip-path="url(#clip0_754_4)">
<path d="M142.9 96C121.4 96 100.7 104.5 85.4998 119.8L54.5998 150.6C42.0998 163.1 21.7998 163.1 9.2998 150.6C-3.2002 138.1 -3.2002 117.8 9.2998 105.3L40.1998 74.5C67.4998 47.3 104.4 32 142.9 32C223 32 288 97 288 177.1C288 215.6 272.7 252.5 245.5 279.7L109.3 416H288C305.7 416 320 430.3 320 448C320 465.7 305.7 480 288 480H31.9998C19.0998 480 7.3998 472.2 2.3998 460.2C-2.6002 448.2 0.199804 434.5 9.2998 425.3L200.2 234.5C215.4 219.3 224 198.6 224 177.1C224 132.3 187.7 96 142.9 96Z" fill="black"/>
</g>
<defs>
<clipPath id="clip0_754_4">
<rect width="320" height="512" fill="white"/>
</clipPath>
</defs>
</svg>
