<svg width="24" height="24" viewBox="0 0 24 24" fill="none" xmlns="http://www.w3.org/2000/svg">
<path d="M5.00032 7.75C4.85208 7.75013 4.7072 7.79419 4.58399 7.87661C4.46077 7.95903 4.36474 8.07611 4.30803 8.21308C4.25132 8.35004 4.23647 8.50074 4.26535 8.64614C4.29424 8.79154 4.36556 8.92511 4.47032 9.03L11.4703 16.03C11.6109 16.1705 11.8016 16.2493 12.0003 16.2493C12.1991 16.2493 12.3897 16.1705 12.5303 16.03L19.5303 9.03C19.6351 8.92511 19.7064 8.79154 19.7353 8.64614C19.7642 8.50074 19.7493 8.35004 19.6926 8.21308C19.6359 8.07611 19.5399 7.95903 19.4166 7.87661C19.2934 7.79419 19.1486 7.75013 19.0003 7.75H5.00032Z" fill="black"/>
</svg>
