<svg width="487" height="487" viewBox="0 0 487 487" fill="none" xmlns="http://www.w3.org/2000/svg">
<circle cx="243.5" cy="243.5" r="243.5" fill="#F2F2F2"/>
<path d="M299.311 171.653L336.712 182.464C299.895 287.656 231.812 349.018 127.205 381.745C123.114 372.979 112.01 356.031 104.998 347.557C206.099 320.967 268.922 266.91 299.311 171.653ZM186.521 173.99C216.034 260.482 279.149 322.72 383.172 346.096C374.698 354.278 363.303 370.933 357.751 381.16C248.176 352.525 187.982 285.611 151.457 184.509L186.521 173.99ZM110.257 152.66H377.913V187.139H110.257V152.66ZM225.092 106.492H261.325V173.698H225.092V106.492Z" fill="#4893FF"/>
</svg>
