<svg width="60" height="60" viewBox="0 0 60 60" fill="none" xmlns="http://www.w3.org/2000/svg">
<circle cx="30" cy="30" r="30" fill="#F2F2F2"/>
<path d="M15.9307 32.5492C15.3217 31.534 15 30.3723 15 29.1884C15 28.0045 15.3217 26.8428 15.9307 25.8276C16.1179 25.515 16.3685 25.2451 16.6663 25.0352C16.9641 24.8253 17.3025 24.68 17.6598 24.6086L20.608 24.0183C20.7838 23.9835 20.9424 23.8895 21.0572 23.7519L24.6584 19.4281C26.7167 16.9554 27.7475 15.7207 28.6652 16.0533C29.5864 16.3859 29.5864 17.995 29.5864 21.213V37.1673C29.5864 40.3836 29.5864 41.9909 28.667 42.3252C27.7493 42.6561 26.7184 41.4215 24.6601 38.9505L21.0538 34.6249C20.9393 34.4877 20.7814 34.3937 20.6062 34.3585L17.6581 33.7682C17.3008 33.6968 16.9624 33.5515 16.6646 33.3416C16.3668 33.1317 16.1179 32.8618 15.9307 32.5492Z" stroke="black" stroke-width="2"/>
<path d="M36.5518 34.413L46.9999 23.9648M46.9999 34.413L36.5518 23.9648" stroke="black" stroke-width="2" stroke-linecap="round"/>
</svg>
