<svg width="60" height="60" viewBox="0 0 60 60" fill="none" xmlns="http://www.w3.org/2000/svg">
<circle cx="30" cy="30" r="30" fill="#F2F2F2"/>
<path d="M16.8826 33.6948C16.3051 32.7319 16 31.6302 16 30.5075C16 29.3847 16.3051 28.283 16.8826 27.3202C17.0602 27.0238 17.2979 26.7678 17.5803 26.5687C17.8627 26.3696 18.1837 26.2318 18.5225 26.1642L21.3184 25.6043C21.4852 25.5713 21.6355 25.4821 21.7445 25.3516L25.1597 21.2511C27.1117 18.906 28.0894 17.7352 28.9597 18.0506C29.8333 18.366 29.8333 19.892 29.8333 22.9438V38.0744C29.8333 41.1246 29.8333 42.6489 28.9613 42.966C28.091 43.2798 27.1134 42.1089 25.1613 39.7655L21.7412 35.6633C21.6327 35.5331 21.4829 35.444 21.3168 35.4106L18.5209 34.8508C18.182 34.7831 17.8611 34.6453 17.5786 34.4462C17.2962 34.2471 17.0602 33.9912 16.8826 33.6948Z" stroke="black" stroke-width="2"/>
<path d="M37.3242 24.6678C38.8651 26.2086 39.7344 28.296 39.7428 30.475C39.7511 32.654 38.8978 34.748 37.3688 36.3006M44.1298 21.165C46.5952 23.6301 47.9862 26.9697 47.9999 30.456C48.0135 33.9423 46.6485 37.2926 44.2025 39.7769" stroke="black" stroke-width="2" stroke-linecap="round"/>
</svg>
