<svg width="24" height="24" viewBox="0 0 24 24" fill="none" xmlns="http://www.w3.org/2000/svg">
<path d="M12.5303 7.97032C12.3897 7.82987 12.1991 7.75098 12.0003 7.75098C11.8016 7.75098 11.6109 7.82987 11.4703 7.97032L4.47032 14.9703C4.36556 15.0752 4.29424 15.2088 4.26535 15.3542C4.23647 15.4996 4.25132 15.6503 4.30803 15.7872C4.36474 15.9242 4.46077 16.0413 4.58399 16.1237C4.7072 16.2061 4.85208 16.2502 5.00032 16.2503H19.0003C19.1486 16.2502 19.2934 16.2061 19.4166 16.1237C19.5399 16.0413 19.6359 15.9242 19.6926 15.7872C19.7493 15.6503 19.7642 15.4996 19.7353 15.3542C19.7064 15.2088 19.6351 15.0752 19.5303 14.9703L12.5303 7.97032Z" fill="black"/>
</svg>
