<svg width="300" height="300" viewBox="0 0 300 300" fill="none" xmlns="http://www.w3.org/2000/svg">
<path d="M150 28.125C125.895 28.125 102.332 35.2728 82.2899 48.6646C62.2477 62.0564 46.6267 81.0907 37.4022 103.36C28.1778 125.63 25.7643 150.135 30.4668 173.777C35.1694 197.418 46.7769 219.134 63.8214 236.179C80.8659 253.223 102.582 264.831 126.223 269.533C149.865 274.236 174.37 271.822 196.64 262.598C218.909 253.373 237.944 237.752 251.335 217.71C264.727 197.668 271.875 174.105 271.875 150C271.841 117.687 258.99 86.7077 236.141 63.8591C213.292 41.0104 182.313 28.1591 150 28.125ZM203.508 128.508L137.883 194.133C137.012 195.004 135.978 195.696 134.84 196.168C133.702 196.64 132.482 196.882 131.25 196.882C130.018 196.882 128.798 196.64 127.66 196.168C126.522 195.696 125.488 195.004 124.617 194.133L96.4922 166.008C94.7331 164.249 93.7448 161.863 93.7448 159.375C93.7448 156.887 94.7331 154.501 96.4922 152.742C98.2514 150.983 100.637 149.995 103.125 149.995C105.613 149.995 107.999 150.983 109.758 152.742L131.25 174.246L190.242 115.242C191.113 114.371 192.147 113.68 193.285 113.209C194.423 112.737 195.643 112.495 196.875 112.495C198.107 112.495 199.327 112.737 200.465 113.209C201.603 113.68 202.637 114.371 203.508 115.242C204.379 116.113 205.07 117.147 205.541 118.285C206.013 119.423 206.255 120.643 206.255 121.875C206.255 123.107 206.013 124.327 205.541 125.465C205.07 126.603 204.379 127.637 203.508 128.508Z" fill="#FF8A8C"/>
</svg>
