<svg width="384" height="384" viewBox="0 0 384 384" fill="none" xmlns="http://www.w3.org/2000/svg">
<path d="M192 214.4L145.33 261.2C142.38 264.133 138.625 265.6 134.065 265.6C129.505 265.6 125.75 264.133 122.8 261.2C119.867 258.266 118.4 254.533 118.4 250C118.4 245.466 119.867 241.733 122.8 238.8L169.6 192L122.8 145.731C119.867 142.78 118.4 139.025 118.4 134.465C118.4 129.905 119.867 126.15 122.8 123.2C125.733 120.266 129.467 118.8 134 118.8C138.533 118.8 142.267 120.266 145.2 123.2L192 170L238.269 123.2C241.219 120.266 244.975 118.8 249.534 118.8C254.094 118.8 257.85 120.266 260.8 123.2C264 126.4 265.6 130.2 265.6 134.6C265.6 139 264 142.666 260.8 145.6L214 192L260.8 238.669C263.733 241.62 265.2 245.375 265.2 249.935C265.2 254.494 263.733 258.249 260.8 261.2C257.6 264.4 253.8 266 249.4 266C245 266 241.333 264.4 238.4 261.2L192 214.4Z" fill="black"/>
</svg>
