<svg width="384" height="384" viewBox="0 0 384 384" fill="none" xmlns="http://www.w3.org/2000/svg">
<g clip-path="url(#clip0_690_16)">
<path d="M306.24 207.04C306.88 202.24 307.2 197.28 307.2 192C307.2 186.88 306.88 181.76 306.08 176.96L338.56 151.68C341.44 149.44 342.24 145.12 340.48 141.92L309.76 88.7999C307.84 85.2799 303.84 84.1599 300.32 85.2799L262.08 100.64C254.08 94.5599 245.6 89.4399 236.16 85.5999L230.4 44.9599C229.76 41.1199 226.56 38.3999 222.72 38.3999H161.28C157.44 38.3999 154.4 41.1199 153.76 44.9599L148 85.5999C138.56 89.4399 129.92 94.7199 122.08 100.64L83.84 85.2799C80.32 83.9999 76.32 85.2799 74.4 88.7999L43.84 141.92C41.92 145.28 42.56 149.44 45.76 151.68L78.24 176.96C77.44 181.76 76.8 187.04 76.8 192C76.8 196.96 77.12 202.24 77.92 207.04L45.44 232.32C42.56 234.56 41.76 238.88 43.52 242.08L74.24 295.2C76.16 298.72 80.16 299.84 83.68 298.72L121.92 283.36C129.92 289.44 138.4 294.56 147.84 298.4L153.6 339.04C154.4 342.88 157.44 345.6 161.28 345.6H222.72C226.56 345.6 229.76 342.88 230.24 339.04L236 298.4C245.44 294.56 254.08 289.44 261.92 283.36L300.16 298.72C303.68 300 307.68 298.72 309.6 295.2L340.32 242.08C342.24 238.56 341.44 234.56 338.4 232.32L306.24 207.04ZM192 249.6C160.32 249.6 134.4 223.68 134.4 192C134.4 160.32 160.32 134.4 192 134.4C223.68 134.4 249.6 160.32 249.6 192C249.6 223.68 223.68 249.6 192 249.6Z" fill="black"/>
</g>
<defs>
<clipPath id="clip0_690_16">
<rect width="384" height="384" fill="white"/>
</clipPath>
</defs>
</svg>
