<svg width="384" height="384" viewBox="0 0 384 384" fill="none" xmlns="http://www.w3.org/2000/svg">
<g clip-path="url(#clip0_688_13)">
<path d="M265.44 121.28L160 226.72L102.56 169.44L80 192L160 272L288 144L265.44 121.28ZM192 32C103.68 32 32 103.68 32 192C32 280.32 103.68 352 192 352C280.32 352 352 280.32 352 192C352 103.68 280.32 32 192 32ZM192 320C121.28 320 64 262.72 64 192C64 121.28 121.28 64 192 64C262.72 64 320 121.28 320 192C320 262.72 262.72 320 192 320Z" fill="#41D300"/>
</g>
<defs>
<clipPath id="clip0_688_13">
<rect width="384" height="384" fill="white"/>
</clipPath>
</defs>
</svg>
