<svg width="513" height="104" viewBox="0 0 513 104" fill="none" xmlns="http://www.w3.org/2000/svg">
<g filter="url(#filter0_d_227_358)">
<path d="M150.204 0.464233H509V68.6621L355.888 96L4 88.3282V17.8076L150.204 0.464233Z" fill="#202632"/>
</g>
<path d="M177.913 36.7642C177.473 36.6842 176.933 36.6242 176.293 36.5842C175.653 36.5042 174.953 36.4442 174.193 36.4042C173.473 36.3642 172.733 36.3442 171.973 36.3442C171.213 36.3042 170.513 36.2842 169.873 36.2842C170.073 36.8442 170.173 37.4842 170.173 38.2042C170.173 38.9242 170.093 39.7042 169.933 40.5442C169.773 41.3442 169.573 42.1842 169.333 43.0642C169.093 43.9442 168.833 44.8242 168.553 45.7042C169.233 46.4242 170.113 47.2442 171.193 48.1642C172.273 49.0442 173.353 49.9242 174.433 50.8042C175.553 51.6842 176.613 52.4842 177.613 53.2042C178.653 53.8842 179.453 54.3642 180.013 54.6442C180.253 55.8442 180.213 57.0442 179.893 58.2442C179.613 59.4442 179.153 60.4242 178.513 61.1842C177.873 61.9442 177.133 62.3642 176.293 62.4442C175.453 62.5242 174.613 62.0442 173.773 61.0042C173.453 60.6042 172.973 60.0242 172.333 59.2642C171.733 58.4642 171.073 57.6042 170.353 56.6842C169.633 55.7642 168.893 54.8242 168.133 53.8642C167.413 52.9042 166.773 52.0642 166.213 51.3442C165.453 52.8242 164.553 54.2842 163.513 55.7242C162.473 57.1242 161.313 58.4042 160.033 59.5642C158.793 60.6842 157.453 61.6042 156.013 62.3242C154.573 63.0442 153.073 63.4242 151.513 63.4642C150.313 63.5042 149.413 63.2442 148.813 62.6842C148.213 62.0842 147.953 61.4842 148.033 60.8842C148.033 60.7642 148.113 60.6642 148.273 60.5842C148.393 60.5042 148.513 60.4442 148.633 60.4042C149.313 60.3242 150.193 59.9842 151.273 59.3842C152.353 58.7842 153.313 57.9642 154.153 56.9242C156.673 53.8042 158.593 50.5042 159.913 47.0242C161.273 43.5442 162.093 40.0442 162.373 36.5242C162.173 36.5242 161.873 36.5442 161.473 36.5842C161.073 36.6242 160.773 36.6642 160.573 36.7042C159.853 36.7842 159.113 36.9042 158.353 37.0642C157.633 37.1842 156.813 37.2042 155.893 37.1242C154.493 37.0442 153.393 36.3242 152.593 34.9642C151.833 33.6042 151.413 31.8442 151.333 29.6842C152.293 29.7642 153.393 29.8242 154.633 29.8642C155.873 29.9042 157.173 29.9442 158.533 29.9842C159.933 30.0242 161.353 30.0442 162.793 30.0442C164.273 30.0442 165.713 30.0042 167.113 29.9242C167.993 29.9242 168.853 29.8642 169.693 29.7442C170.573 29.5842 171.393 29.4242 172.153 29.2642C172.953 29.1042 173.653 28.9842 174.253 28.9042C174.893 28.8242 175.393 28.8042 175.753 28.8442C176.873 29.0042 177.753 29.5242 178.393 30.4042C179.033 31.2842 179.433 32.2242 179.593 33.2242C179.753 34.1842 179.673 35.0442 179.353 35.8042C179.073 36.5642 178.593 36.8842 177.913 36.7642ZM184.993 28.1242C184.993 26.3242 184.853 24.9242 184.573 23.9242C184.293 22.8842 183.733 22.1642 182.893 21.7642L183.193 21.0442C185.673 21.0442 187.593 21.1842 188.953 21.4642C190.313 21.7042 191.313 22.2242 191.953 23.0242C192.513 23.6642 192.913 24.4242 193.153 25.3042C193.433 26.1442 193.533 27.3042 193.453 28.7842C193.453 28.9842 193.433 29.4442 193.393 30.1642C193.353 30.8842 193.313 31.6642 193.273 32.5042C193.233 33.3442 193.193 34.1242 193.153 34.8442C193.113 35.5642 193.093 36.0442 193.093 36.2842C192.973 38.2042 192.913 40.1442 192.913 42.1042L198.073 40.9042C198.433 40.8242 198.813 40.8042 199.213 40.8442C199.613 40.8842 199.953 41.0042 200.233 41.2042C200.633 41.5242 200.993 41.9442 201.313 42.4642C201.633 42.9442 201.893 43.4642 202.093 44.0242C202.293 44.5442 202.433 45.0642 202.513 45.5842C202.593 46.0642 202.593 46.4842 202.513 46.8442C202.473 47.0842 202.393 47.3442 202.273 47.6242C202.153 47.9042 201.993 48.1842 201.793 48.4642C201.593 48.7042 201.353 48.9242 201.073 49.1242C200.833 49.2842 200.553 49.3442 200.233 49.3042C199.033 49.2242 197.813 49.1242 196.573 49.0042C195.373 48.8842 194.173 48.8042 192.973 48.7642C193.053 52.0842 193.113 55.3842 193.153 58.6642C193.233 61.9042 193.213 65.1642 193.093 68.4442C192.973 71.0842 192.233 72.9842 190.873 74.1442C189.553 75.3042 187.973 75.9642 186.133 76.1242C185.813 76.1242 185.513 76.1242 185.233 76.1242C184.993 76.1642 184.713 76.1642 184.393 76.1242C184.593 74.4442 184.733 72.3442 184.813 69.8242C184.933 67.3442 185.013 64.6442 185.053 61.7242C185.093 58.8042 185.113 55.7842 185.113 52.6642C185.113 49.5042 185.093 46.4242 185.053 43.4242C185.053 40.4242 185.033 37.6042 184.993 34.9642C184.993 32.3242 184.993 30.0442 184.993 28.1242ZM239.017 28.1242C239.017 26.3242 238.877 24.9242 238.597 23.9242C238.317 22.8842 237.757 22.1642 236.917 21.7642L237.217 21.0442C239.697 21.0442 241.617 21.1842 242.977 21.4642C244.337 21.7042 245.337 22.2242 245.977 23.0242C246.537 23.6642 246.937 24.4242 247.177 25.3042C247.457 26.1442 247.557 27.3042 247.477 28.7842C247.477 28.9842 247.457 29.4442 247.417 30.1642C247.377 30.8842 247.337 31.6642 247.297 32.5042C247.257 33.3442 247.217 34.1242 247.177 34.8442C247.137 35.5642 247.117 36.0442 247.117 36.2842C246.997 38.2042 246.937 40.1442 246.937 42.1042L252.097 40.9042C252.457 40.8242 252.837 40.8042 253.237 40.8442C253.637 40.8842 253.977 41.0042 254.257 41.2042C254.657 41.5242 255.017 41.9442 255.337 42.4642C255.657 42.9442 255.917 43.4642 256.117 44.0242C256.317 44.5442 256.457 45.0642 256.537 45.5842C256.617 46.0642 256.617 46.4842 256.537 46.8442C256.497 47.0842 256.417 47.3442 256.297 47.6242C256.177 47.9042 256.017 48.1842 255.817 48.4642C255.617 48.7042 255.377 48.9242 255.097 49.1242C254.857 49.2842 254.577 49.3442 254.257 49.3042C253.057 49.2242 251.837 49.1242 250.597 49.0042C249.397 48.8842 248.197 48.8042 246.997 48.7642C247.077 52.0842 247.137 55.3842 247.177 58.6642C247.257 61.9042 247.237 65.1642 247.117 68.4442C246.997 71.0842 246.257 72.9842 244.897 74.1442C243.577 75.3042 241.997 75.9642 240.157 76.1242C239.837 76.1242 239.537 76.1242 239.257 76.1242C239.017 76.1642 238.737 76.1642 238.417 76.1242C238.617 74.4442 238.757 72.3442 238.837 69.8242C238.957 67.3442 239.037 64.6442 239.077 61.7242C239.117 58.8042 239.137 55.7842 239.137 52.6642C239.137 49.5042 239.117 46.4242 239.077 43.4242C239.077 40.4242 239.057 37.6042 239.017 34.9642C239.017 32.3242 239.017 30.0442 239.017 28.1242ZM224.257 36.7042C224.337 36.1842 224.237 35.8442 223.957 35.6842C223.677 35.4842 223.417 35.3642 223.177 35.3242C222.657 35.2842 222.157 35.2442 221.677 35.2042C221.237 35.1642 220.757 35.1642 220.237 35.2042C219.757 35.2442 219.217 35.3042 218.617 35.3842C218.017 35.4242 217.317 35.5042 216.517 35.6242C215.877 35.7042 215.057 35.9242 214.057 36.2842C213.057 36.6442 212.097 36.8042 211.177 36.7642C210.257 36.7242 209.497 36.5042 208.897 36.1042C208.337 35.6642 207.897 35.1042 207.577 34.4242C207.257 33.7042 207.017 32.8842 206.857 31.9642C206.737 31.0042 206.677 30.0042 206.677 28.9642C208.717 29.1242 210.617 29.2242 212.377 29.2642C214.177 29.3042 216.097 29.2842 218.137 29.2042C219.057 29.1642 219.917 29.1042 220.717 29.0242C221.557 28.9042 222.617 28.7242 223.897 28.4842C224.657 28.3642 225.417 28.3042 226.177 28.3042C226.977 28.3042 227.577 28.3442 227.977 28.4242C229.017 28.5842 229.877 28.8242 230.557 29.1442C231.237 29.4242 231.757 29.8242 232.117 30.3442C232.477 30.8242 232.717 31.4442 232.837 32.2042C232.957 32.9642 232.997 33.9042 232.957 35.0242C232.877 36.6242 232.577 38.3642 232.057 40.2442C231.577 42.1242 230.877 44.0442 229.957 46.0042C229.037 47.9642 227.897 49.8842 226.537 51.7642C225.217 53.6442 223.697 55.3842 221.977 56.9842C220.297 58.5442 218.417 59.9042 216.337 61.0642C214.257 62.1842 212.017 62.9642 209.617 63.4042C209.017 63.5242 208.457 63.5242 207.937 63.4042C207.417 63.2442 206.957 63.0242 206.557 62.7442C206.157 62.4642 205.837 62.1442 205.597 61.7842C205.397 61.3842 205.297 61.0042 205.297 60.6442C205.257 60.5242 205.297 60.4242 205.417 60.3442C205.577 60.2642 205.717 60.2042 205.837 60.1642C208.277 59.0842 210.557 57.6642 212.677 55.9042C214.797 54.1442 216.657 52.2042 218.257 50.0842C219.897 47.9642 221.237 45.7642 222.277 43.4842C223.317 41.1642 223.977 38.9042 224.257 36.7042ZM279.96 32.6242C280.12 33.5442 280.1 34.6042 279.9 35.8042C279.7 36.9642 279.36 38.1842 278.88 39.4642C279.76 40.1042 280.76 40.7842 281.88 41.5042C283.04 42.1842 284.16 42.8442 285.24 43.4842C286.36 44.0842 287.38 44.6042 288.3 45.0442C289.26 45.4842 290 45.7642 290.52 45.8842C290.84 47.0842 290.86 48.2642 290.58 49.4242C290.3 50.5442 289.84 51.4842 289.2 52.2442C288.6 53.0042 287.9 53.4842 287.1 53.6842C286.3 53.8442 285.54 53.5442 284.82 52.7842C284.18 52.1442 283.48 51.4642 282.72 50.7442C282 49.9842 281.24 49.2442 280.44 48.5242C279.68 47.8042 278.92 47.1042 278.16 46.4242C277.44 45.7442 276.76 45.1442 276.12 44.6242C275.2 45.9842 274.16 47.2842 273 48.5242C271.88 49.7242 270.66 50.8042 269.34 51.7642C268.02 52.7242 266.64 53.5042 265.2 54.1042C263.76 54.6642 262.28 54.9642 260.76 55.0042C259.56 55.0442 258.66 54.7842 258.06 54.2242C257.46 53.6242 257.2 53.0242 257.28 52.4242C257.28 52.3042 257.34 52.2042 257.46 52.1242C257.62 52.0442 257.76 51.9842 257.88 51.9442C258.92 51.8242 260 51.4042 261.12 50.6842C262.24 49.9642 263.32 49.0842 264.36 48.0442C265.4 46.9642 266.38 45.7842 267.3 44.5042C268.26 43.1842 269.1 41.8442 269.82 40.4842C270.54 39.0842 271.1 37.7242 271.5 36.4042C271.94 35.0842 272.18 33.9042 272.22 32.8642C271.9 32.8642 271.5 32.8842 271.02 32.9242C270.58 32.9242 270.18 32.9642 269.82 33.0442C269.14 33.1642 268.42 33.2842 267.66 33.4042C266.9 33.5242 266.06 33.5442 265.14 33.4642C264.22 33.4242 263.48 33.1642 262.92 32.6842C262.36 32.1642 261.9 31.5442 261.54 30.8242C261.22 30.1042 260.98 29.3242 260.82 28.4842C260.7 27.6442 260.62 26.8242 260.58 26.0242C261.54 26.1042 262.72 26.1642 264.12 26.2042C265.52 26.2442 267 26.2842 268.56 26.3242C270.12 26.3642 271.7 26.3842 273.3 26.3842C274.9 26.3842 276.4 26.3442 277.8 26.2642C278.68 26.2642 279.54 26.2042 280.38 26.0842C281.26 25.9242 282.08 25.7642 282.84 25.6042C283.64 25.4442 284.34 25.3242 284.94 25.2442C285.58 25.1642 286.08 25.1442 286.44 25.1842C287.56 25.3442 288.44 25.8642 289.08 26.7442C289.72 27.6242 290.12 28.5642 290.28 29.5642C290.44 30.5242 290.36 31.3842 290.04 32.1442C289.76 32.9042 289.28 33.2242 288.6 33.1042C288.16 33.0242 287.58 32.9642 286.86 32.9242C286.14 32.8442 285.38 32.7842 284.58 32.7442C283.78 32.7042 282.96 32.6842 282.12 32.6842C281.32 32.6442 280.6 32.6242 279.96 32.6242ZM304.86 64.7242C305.74 64.4042 306.3 64.4242 306.54 64.7842C306.82 65.1442 306.72 65.7642 306.24 66.6442C305.8 67.4442 305.24 68.3442 304.56 69.3442C303.92 70.3042 303.16 71.2242 302.28 72.1042C301.44 72.9842 300.52 73.7242 299.52 74.3242C298.52 74.9642 297.48 75.3042 296.4 75.3442C295.24 75.4242 294.1 75.3842 292.98 75.2242C291.9 75.0642 290.9 74.8442 289.98 74.5642C288.46 74.1642 286.84 73.7842 285.12 73.4242C283.4 73.1042 281.52 72.9442 279.48 72.9442C278.08 72.9442 276.8 73.1242 275.64 73.4842C274.52 73.8842 273.5 74.2442 272.58 74.5642C271.98 74.7642 271.4 74.7642 270.84 74.5642C270.28 74.4042 269.92 74.1042 269.76 73.6642C269.64 73.3842 269.48 73.0042 269.28 72.5242C269.12 72.0842 268.96 71.6242 268.8 71.1442C268.68 70.6642 268.56 70.1642 268.44 69.6442C268.36 69.1642 268.34 68.7442 268.38 68.3842C268.42 68.1442 268.56 67.7642 268.8 67.2442C269.04 66.7242 269.32 66.4242 269.64 66.3442C270.12 65.3442 270.28 64.1042 270.12 62.6242C270 61.1042 269.32 59.6642 268.08 58.3042L268.62 56.8042C269.78 56.6842 270.98 56.7242 272.22 56.9242C273.5 57.0842 274.54 57.4042 275.34 57.8842C276.06 58.3242 276.58 58.8642 276.9 59.5042C277.26 60.1042 277.46 60.7842 277.5 61.5442C277.58 62.2642 277.52 63.0442 277.32 63.8842C277.16 64.7242 276.94 65.5642 276.66 66.4042C277.5 66.3642 278.38 66.3242 279.3 66.2842C280.26 66.2442 281.2 66.2442 282.12 66.2842C284.2 66.3642 286.2 66.4042 288.12 66.4042C290.04 66.4042 292.1 66.4242 294.3 66.4642C296.18 66.5042 298.02 66.3642 299.82 66.0442C301.66 65.7242 303.34 65.2842 304.86 64.7242ZM304.68 28.7842C304.28 32.9842 304.1 37.1642 304.14 41.3242C304.18 45.4442 304.26 49.6842 304.38 54.0442C304.46 55.6442 304.14 56.9642 303.42 58.0042C302.7 59.0042 301.78 59.6842 300.66 60.0442C300.02 60.2442 299.26 60.3842 298.38 60.4642C297.5 60.5442 296.72 60.5442 296.04 60.4642C296.16 60.0242 296.26 59.4042 296.34 58.6042C296.42 57.7642 296.44 56.9642 296.4 56.2042C296.32 54.8042 296.26 53.3442 296.22 51.8242C296.22 50.3042 296.2 48.7442 296.16 47.1442C296.12 44.2242 296.1 41.0842 296.1 37.7242C296.1 34.3642 296.14 31.1642 296.22 28.1242C296.22 26.3242 296.08 24.9242 295.8 23.9242C295.52 22.8842 294.96 22.1642 294.12 21.7642L294.42 21.0442C296.9 21.0442 298.82 21.1842 300.18 21.4642C301.54 21.7042 302.54 22.2242 303.18 23.0242C303.74 23.6642 304.16 24.4242 304.44 25.3042C304.76 26.1442 304.84 27.3042 304.68 28.7842ZM348.083 28.1242C348.083 26.3242 347.943 24.9242 347.663 23.9242C347.383 22.8842 346.823 22.1642 345.983 21.7642L346.283 21.0442C348.763 21.0442 350.683 21.1842 352.043 21.4642C353.403 21.7042 354.403 22.2242 355.043 23.0242C355.603 23.6642 356.003 24.4242 356.243 25.3042C356.523 26.1442 356.623 27.3042 356.543 28.7842C356.543 28.9842 356.523 29.3242 356.483 29.8042C356.443 30.2842 356.403 30.8042 356.363 31.3642C356.323 31.9242 356.263 32.4642 356.183 32.9842C356.143 33.4642 356.123 33.8242 356.123 34.0642C356.083 34.6242 356.043 35.2042 356.003 35.8042C356.003 36.4042 356.003 36.9842 356.003 37.5442C356.763 37.3442 357.423 37.1442 357.983 36.9442C358.583 36.7442 359.303 36.5442 360.143 36.3442C360.503 36.2642 360.883 36.2442 361.283 36.2842C361.683 36.3242 362.023 36.4442 362.303 36.6442C362.703 36.9642 363.063 37.3842 363.383 37.9042C363.703 38.3842 363.963 38.9042 364.163 39.4642C364.363 39.9842 364.503 40.5042 364.583 41.0242C364.663 41.5442 364.663 41.9642 364.583 42.2842C364.503 42.7642 364.263 43.2242 363.863 43.6642C363.503 44.1042 362.983 44.3042 362.303 44.2642C361.063 44.1442 359.983 44.0242 359.063 43.9042C358.143 43.7842 357.103 43.7042 355.943 43.6642L356.063 48.2242L356.243 53.5642C356.323 55.1642 356.003 56.4642 355.283 57.4642C354.563 58.4642 353.643 59.1442 352.523 59.5042C351.883 59.7042 351.123 59.8642 350.243 59.9842C349.403 60.0642 348.643 60.0642 347.963 59.9842C348.043 59.5442 348.123 58.9042 348.203 58.0642C348.283 57.2242 348.303 56.4442 348.263 55.7242C348.143 53.5642 348.083 51.2842 348.083 48.8842C347.003 49.8042 345.723 50.5242 344.243 51.0442C342.763 51.5642 341.303 51.9242 339.863 52.1242C338.303 52.3242 336.983 52.4442 335.903 52.4842C334.863 52.5242 333.863 52.5442 332.903 52.5442C331.983 52.5442 331.023 52.5442 330.023 52.5442C329.063 52.5042 327.903 52.5442 326.543 52.6642C325.543 52.7442 324.483 52.8442 323.363 52.9642C322.243 53.0442 321.303 53.1242 320.543 53.2042C319.023 53.4042 317.923 53.3242 317.243 52.9642C316.563 52.5642 316.043 52.0242 315.683 51.3442C315.403 50.8242 315.223 50.2242 315.143 49.5442C315.063 48.8242 315.103 47.9842 315.263 47.0242C315.383 46.1442 315.483 45.1042 315.563 43.9042C315.683 42.6642 315.743 41.3842 315.743 40.0642C315.743 38.7442 315.703 37.4442 315.623 36.1642C315.543 34.8442 315.403 33.6642 315.203 32.6242C315.203 32.5842 315.183 32.5642 315.143 32.5642C315.143 32.5242 315.163 32.4642 315.203 32.3842C314.523 32.3442 314.003 32.1642 313.643 31.8442C313.283 31.5242 313.023 31.1042 312.863 30.5842C312.743 30.2242 312.663 29.8242 312.623 29.3842C312.583 28.9042 312.563 28.4242 312.563 27.9442C312.603 27.4242 312.643 26.9242 312.683 26.4442C312.723 25.9642 312.743 25.5442 312.743 25.1842C314.223 25.3842 315.623 25.5442 316.943 25.6642C318.263 25.7842 319.623 25.8642 321.023 25.9042C322.463 25.9442 323.983 25.9442 325.583 25.9042C327.223 25.8642 329.083 25.8042 331.163 25.7242C331.683 25.7242 332.243 25.7042 332.843 25.6642C333.483 25.6242 334.123 25.5842 334.763 25.5442C335.403 25.4642 336.003 25.4042 336.563 25.3642C337.163 25.2842 337.683 25.2042 338.123 25.1242C338.963 25.2442 339.603 25.6842 340.043 26.4442C340.523 27.2042 340.803 28.0242 340.883 28.9042C340.963 29.7442 340.843 30.5242 340.523 31.2442C340.243 31.9642 339.743 32.3242 339.023 32.3242H323.123C323.683 32.6442 323.983 33.0442 324.023 33.5242C324.223 35.7242 324.343 37.8442 324.383 39.8842C324.423 41.8842 324.363 43.9842 324.203 46.1842C325.123 46.1842 326.003 46.1842 326.843 46.1842C327.683 46.1842 328.523 46.1842 329.363 46.1842C330.243 46.1842 331.163 46.1842 332.123 46.1842C333.123 46.1842 334.223 46.1642 335.423 46.1242C337.383 46.0442 339.463 45.8842 341.663 45.6442C343.863 45.3642 345.983 44.8242 348.023 44.0242C348.023 41.4242 348.023 38.7842 348.023 36.1042C348.023 33.3842 348.043 30.7242 348.083 28.1242ZM357.083 64.7242C357.923 64.4042 358.463 64.4242 358.703 64.7842C358.943 65.1442 358.843 65.7642 358.403 66.6442C357.963 67.4442 357.403 68.3442 356.723 69.3442C356.083 70.3042 355.323 71.2242 354.443 72.1042C353.603 72.9842 352.683 73.7242 351.683 74.3242C350.683 74.9642 349.643 75.3042 348.563 75.3442C347.403 75.4242 346.263 75.3842 345.143 75.2242C344.063 75.0642 343.063 74.8442 342.143 74.5642C340.623 74.1642 338.903 73.7842 336.983 73.4242C335.103 73.1042 333.143 72.9442 331.103 72.9442C329.663 72.9442 328.363 73.1242 327.203 73.4842C326.083 73.8842 325.063 74.2442 324.143 74.5642C323.583 74.7642 323.003 74.7642 322.403 74.5642C321.843 74.4042 321.483 74.1042 321.323 73.6642C321.203 73.3842 321.063 73.0042 320.903 72.5242C320.743 72.0842 320.583 71.6242 320.423 71.1442C320.303 70.6642 320.183 70.1642 320.063 69.6442C319.983 69.1642 319.963 68.7442 320.003 68.3842C320.043 68.1442 320.163 67.7642 320.363 67.2442C320.603 66.7242 320.883 66.4242 321.203 66.3442C321.723 65.3442 321.903 64.1042 321.743 62.6242C321.623 61.1442 320.923 59.7242 319.643 58.3642L320.183 56.8642C321.343 56.7842 322.543 56.8442 323.783 57.0442C325.063 57.2042 326.103 57.5242 326.903 58.0042C328.343 58.9242 329.063 60.1242 329.063 61.6042C329.103 63.0842 328.823 64.6842 328.223 66.4042C329.063 66.3642 329.943 66.3242 330.863 66.2842C331.823 66.2442 332.763 66.2442 333.683 66.2842C335.763 66.3642 337.863 66.4042 339.983 66.4042C342.103 66.4042 344.283 66.4242 346.523 66.4642C348.363 66.5042 350.203 66.3642 352.043 66.0442C353.883 65.7242 355.563 65.2842 357.083 64.7242Z" fill="white"/>
<defs>
<filter id="filter0_d_227_358" x="0" y="0.464233" width="513" height="103.536" filterUnits="userSpaceOnUse" color-interpolation-filters="sRGB">
<feFlood flood-opacity="0" result="BackgroundImageFix"/>
<feColorMatrix in="SourceAlpha" type="matrix" values="0 0 0 0 0 0 0 0 0 0 0 0 0 0 0 0 0 0 127 0" result="hardAlpha"/>
<feOffset dy="4"/>
<feGaussianBlur stdDeviation="2"/>
<feComposite in2="hardAlpha" operator="out"/>
<feColorMatrix type="matrix" values="0 0 0 0 0 0 0 0 0 0 0 0 0 0 0 0 0 0 0.25 0"/>
<feBlend mode="normal" in2="BackgroundImageFix" result="effect1_dropShadow_227_358"/>
<feBlend mode="normal" in="SourceGraphic" in2="effect1_dropShadow_227_358" result="shape"/>
</filter>
</defs>
</svg>
