<svg width="513" height="104" viewBox="0 0 513 104" fill="none" xmlns="http://www.w3.org/2000/svg">
<g filter="url(#filter0_d_227_364)">
<path d="M150.204 0H509V68.1978L355.888 95.5358L4 87.864V17.3434L150.204 0Z" fill="#51D0A2"/>
</g>
<path d="M171.913 32.1599C172.073 33.0799 172.053 34.1399 171.853 35.3399C171.653 36.4999 171.313 37.7199 170.833 38.9999C171.713 39.6399 172.713 40.3199 173.833 41.0399C174.993 41.7199 176.113 42.3799 177.193 43.0199C178.313 43.6199 179.333 44.1399 180.253 44.5799C181.213 45.0199 181.953 45.2999 182.473 45.4199C182.793 46.6199 182.813 47.7999 182.533 48.9599C182.253 50.0799 181.793 51.0199 181.153 51.7799C180.553 52.5399 179.853 53.0199 179.053 53.2199C178.253 53.3799 177.493 53.0799 176.773 52.3199C176.133 51.6799 175.433 50.9999 174.673 50.2799C173.953 49.5199 173.193 48.7799 172.393 48.0599C171.633 47.3399 170.873 46.6399 170.113 45.9599C169.393 45.2799 168.713 44.6799 168.073 44.1599C167.153 45.5199 166.113 46.8199 164.953 48.0599C163.833 49.2599 162.613 50.3399 161.293 51.2999C159.973 52.2599 158.593 53.0399 157.153 53.6399C155.713 54.1999 154.233 54.4999 152.713 54.5399C151.513 54.5799 150.613 54.3199 150.013 53.7599C149.413 53.1599 149.153 52.5599 149.233 51.9599C149.233 51.8399 149.293 51.7399 149.413 51.6599C149.573 51.5799 149.713 51.5199 149.833 51.4799C150.873 51.3599 151.953 50.9399 153.073 50.2199C154.193 49.4999 155.273 48.6199 156.313 47.5799C157.353 46.4999 158.333 45.3199 159.253 44.0399C160.213 42.7199 161.053 41.3799 161.773 40.0199C162.493 38.6199 163.053 37.2599 163.453 35.9399C163.893 34.6199 164.133 33.4399 164.173 32.3999C163.853 32.3999 163.453 32.4199 162.973 32.4599C162.533 32.4599 162.133 32.4999 161.773 32.5799C161.093 32.6999 160.373 32.8199 159.613 32.9399C158.853 33.0599 158.013 33.0799 157.093 32.9999C156.173 32.9599 155.433 32.6999 154.873 32.2199C154.313 31.6999 153.853 31.0799 153.493 30.3599C153.173 29.6399 152.933 28.8599 152.773 28.0199C152.653 27.1799 152.573 26.3599 152.533 25.5599C153.493 25.6399 154.673 25.6999 156.073 25.7399C157.473 25.7799 158.953 25.8199 160.513 25.8599C162.073 25.8999 163.653 25.9199 165.253 25.9199C166.853 25.9199 168.353 25.8799 169.753 25.7999C170.633 25.7999 171.493 25.7399 172.333 25.6199C173.213 25.4599 174.033 25.2999 174.793 25.1399C175.593 24.9799 176.293 24.8599 176.893 24.7799C177.533 24.6999 178.033 24.6799 178.393 24.7199C179.513 24.8799 180.393 25.3999 181.033 26.2799C181.673 27.1599 182.073 28.0999 182.233 29.0999C182.393 30.0599 182.313 30.9199 181.993 31.6799C181.713 32.4399 181.233 32.7599 180.553 32.6399C180.113 32.5599 179.533 32.4999 178.813 32.4599C178.093 32.3799 177.333 32.3199 176.533 32.2799C175.733 32.2399 174.913 32.2199 174.073 32.2199C173.273 32.1799 172.553 32.1599 171.913 32.1599ZM196.813 64.2599C197.693 63.9399 198.253 63.9599 198.493 64.3199C198.773 64.6799 198.673 65.2999 198.193 66.1799C197.753 66.9799 197.193 67.8799 196.513 68.8799C195.873 69.8399 195.113 70.7599 194.233 71.6399C193.393 72.5199 192.473 73.2599 191.473 73.8599C190.473 74.4999 189.433 74.8399 188.353 74.8799C187.193 74.9599 186.053 74.9199 184.933 74.7599C183.853 74.5999 182.853 74.3799 181.933 74.0999C180.413 73.6999 178.793 73.3199 177.073 72.9599C175.353 72.6399 173.473 72.4799 171.433 72.4799C170.033 72.4799 168.753 72.6599 167.593 73.0199C166.473 73.4199 165.453 73.7799 164.533 74.0999C163.933 74.2999 163.353 74.2999 162.793 74.0999C162.233 73.9399 161.873 73.6399 161.713 73.1999C161.593 72.9199 161.433 72.5399 161.233 72.0599C161.073 71.6199 160.913 71.1599 160.753 70.6799C160.633 70.1999 160.513 69.6999 160.393 69.1799C160.313 68.6999 160.293 68.2799 160.333 67.9199C160.373 67.6799 160.513 67.2999 160.753 66.7799C160.993 66.2599 161.273 65.9599 161.593 65.8799C162.073 64.8799 162.233 63.6399 162.073 62.1599C161.953 60.6399 161.273 59.1999 160.033 57.8399L160.573 56.3399C161.733 56.2199 162.933 56.2599 164.173 56.4599C165.453 56.6199 166.493 56.9399 167.293 57.4199C168.013 57.8599 168.533 58.3999 168.853 59.0399C169.213 59.6399 169.413 60.3199 169.453 61.0799C169.533 61.7999 169.473 62.5799 169.273 63.4199C169.113 64.2599 168.893 65.0999 168.613 65.9399C169.453 65.8999 170.333 65.8599 171.253 65.8199C172.213 65.7799 173.153 65.7799 174.073 65.8199C176.153 65.8999 178.153 65.9399 180.073 65.9399C181.993 65.9399 184.053 65.9599 186.253 65.9999C188.133 66.0399 189.973 65.8999 191.773 65.5799C193.613 65.2599 195.293 64.8199 196.813 64.2599ZM196.633 28.3199C196.233 32.5199 196.053 36.6999 196.093 40.8599C196.133 44.9799 196.213 49.2199 196.333 53.5799C196.413 55.1799 196.093 56.4999 195.373 57.5399C194.653 58.5399 193.733 59.2199 192.613 59.5799C191.973 59.7799 191.213 59.9199 190.333 59.9999C189.453 60.0799 188.673 60.0799 187.993 59.9999C188.113 59.5599 188.213 58.9399 188.293 58.1399C188.373 57.2999 188.393 56.4999 188.353 55.7399C188.273 54.3399 188.213 52.8799 188.173 51.3599C188.173 49.8399 188.153 48.2799 188.113 46.6799C188.073 43.7599 188.053 40.6199 188.053 37.2599C188.053 33.8999 188.093 30.6999 188.173 27.6599C188.173 25.8599 188.033 24.4599 187.753 23.4599C187.473 22.4199 186.913 21.6999 186.073 21.2999L186.373 20.5799C188.853 20.5799 190.773 20.7199 192.133 20.9999C193.493 21.2399 194.493 21.7599 195.133 22.5599C195.693 23.1999 196.113 23.9599 196.393 24.8399C196.713 25.6799 196.793 26.8399 196.633 28.3199ZM240.037 27.6599C240.037 25.8599 239.897 24.4599 239.617 23.4599C239.337 22.4199 238.777 21.6999 237.937 21.2999L238.237 20.5799C240.717 20.5799 242.637 20.7199 243.997 20.9999C245.357 21.2399 246.357 21.7599 246.997 22.5599C247.557 23.1999 247.957 23.9599 248.197 24.8399C248.477 25.6799 248.577 26.8399 248.497 28.3199C248.497 28.5199 248.477 28.8599 248.437 29.3399C248.397 29.8199 248.357 30.3399 248.317 30.8999C248.277 31.4599 248.217 31.9999 248.137 32.5199C248.097 32.9999 248.077 33.3599 248.077 33.5999C248.037 34.1599 247.997 34.7399 247.957 35.3399C247.957 35.9399 247.957 36.5199 247.957 37.0799C248.717 36.8799 249.377 36.6799 249.937 36.4799C250.537 36.2799 251.257 36.0799 252.097 35.8799C252.457 35.7999 252.837 35.7799 253.237 35.8199C253.637 35.8599 253.977 35.9799 254.257 36.1799C254.657 36.4999 255.017 36.9199 255.337 37.4399C255.657 37.9199 255.917 38.4399 256.117 38.9999C256.317 39.5199 256.457 40.0399 256.537 40.5599C256.617 41.0799 256.617 41.4999 256.537 41.8199C256.457 42.2999 256.217 42.7599 255.817 43.1999C255.457 43.6399 254.937 43.8399 254.257 43.7999C253.017 43.6799 251.937 43.5599 251.017 43.4399C250.097 43.3199 249.057 43.2399 247.897 43.1999L248.017 47.7599L248.197 53.0999C248.277 54.6999 247.957 55.9999 247.237 56.9999C246.517 57.9999 245.597 58.6799 244.477 59.0399C243.837 59.2399 243.077 59.3999 242.197 59.5199C241.357 59.5999 240.597 59.5999 239.917 59.5199C239.997 59.0799 240.077 58.4399 240.157 57.5999C240.237 56.7599 240.257 55.9799 240.217 55.2599C240.097 53.0999 240.037 50.8199 240.037 48.4199C238.957 49.3399 237.677 50.0599 236.197 50.5799C234.717 51.0999 233.257 51.4599 231.817 51.6599C230.257 51.8599 228.937 51.9799 227.857 52.0199C226.817 52.0599 225.817 52.0799 224.857 52.0799C223.937 52.0799 222.977 52.0799 221.977 52.0799C221.017 52.0399 219.857 52.0799 218.497 52.1999C217.497 52.2799 216.437 52.3799 215.317 52.4999C214.197 52.5799 213.257 52.6599 212.497 52.7399C210.977 52.9399 209.877 52.8599 209.197 52.4999C208.517 52.0999 207.997 51.5599 207.637 50.8799C207.357 50.3599 207.177 49.7599 207.097 49.0799C207.017 48.3599 207.057 47.5199 207.217 46.5599C207.337 45.6799 207.437 44.6399 207.517 43.4399C207.637 42.1999 207.697 40.9199 207.697 39.5999C207.697 38.2799 207.657 36.9799 207.577 35.6999C207.497 34.3799 207.357 33.1999 207.157 32.1599C207.157 32.1199 207.137 32.0999 207.097 32.0999C207.097 32.0599 207.117 31.9999 207.157 31.9199C206.477 31.8799 205.957 31.6999 205.597 31.3799C205.237 31.0599 204.977 30.6399 204.817 30.1199C204.697 29.7599 204.617 29.3599 204.577 28.9199C204.537 28.4399 204.517 27.9599 204.517 27.4799C204.557 26.9599 204.597 26.4599 204.637 25.9799C204.677 25.4999 204.697 25.0799 204.697 24.7199C206.177 24.9199 207.577 25.0799 208.897 25.1999C210.217 25.3199 211.577 25.3999 212.977 25.4399C214.417 25.4799 215.937 25.4799 217.537 25.4399C219.177 25.3999 221.037 25.3399 223.117 25.2599C223.637 25.2599 224.197 25.2399 224.797 25.1999C225.437 25.1599 226.077 25.1199 226.717 25.0799C227.357 24.9999 227.957 24.9399 228.517 24.8999C229.117 24.8199 229.637 24.7399 230.077 24.6599C230.917 24.7799 231.557 25.2199 231.997 25.9799C232.477 26.7399 232.757 27.5599 232.837 28.4399C232.917 29.2799 232.797 30.0599 232.477 30.7799C232.197 31.4999 231.697 31.8599 230.977 31.8599H215.077C215.637 32.1799 215.937 32.5799 215.977 33.0599C216.177 35.2599 216.297 37.3799 216.337 39.4199C216.377 41.4199 216.317 43.5199 216.157 45.7199C217.077 45.7199 217.957 45.7199 218.797 45.7199C219.637 45.7199 220.477 45.7199 221.317 45.7199C222.197 45.7199 223.117 45.7199 224.077 45.7199C225.077 45.7199 226.177 45.6999 227.377 45.6599C229.337 45.5799 231.417 45.4199 233.617 45.1799C235.817 44.8999 237.937 44.3599 239.977 43.5599C239.977 40.9599 239.977 38.3199 239.977 35.6399C239.977 32.9199 239.997 30.2599 240.037 27.6599ZM249.037 64.2599C249.877 63.9399 250.417 63.9599 250.657 64.3199C250.897 64.6799 250.797 65.2999 250.357 66.1799C249.917 66.9799 249.357 67.8799 248.677 68.8799C248.037 69.8399 247.277 70.7599 246.397 71.6399C245.557 72.5199 244.637 73.2599 243.637 73.8599C242.637 74.4999 241.597 74.8399 240.517 74.8799C239.357 74.9599 238.217 74.9199 237.097 74.7599C236.017 74.5999 235.017 74.3799 234.097 74.0999C232.577 73.6999 230.857 73.3199 228.937 72.9599C227.057 72.6399 225.097 72.4799 223.057 72.4799C221.617 72.4799 220.317 72.6599 219.157 73.0199C218.037 73.4199 217.017 73.7799 216.097 74.0999C215.537 74.2999 214.957 74.2999 214.357 74.0999C213.797 73.9399 213.437 73.6399 213.277 73.1999C213.157 72.9199 213.017 72.5399 212.857 72.0599C212.697 71.6199 212.537 71.1599 212.377 70.6799C212.257 70.1999 212.137 69.6999 212.017 69.1799C211.937 68.6999 211.917 68.2799 211.957 67.9199C211.997 67.6799 212.117 67.2999 212.317 66.7799C212.557 66.2599 212.837 65.9599 213.157 65.8799C213.677 64.8799 213.857 63.6399 213.697 62.1599C213.577 60.6799 212.877 59.2599 211.597 57.8999L212.137 56.3999C213.297 56.3199 214.497 56.3799 215.737 56.5799C217.017 56.7399 218.057 57.0599 218.857 57.5399C220.297 58.4599 221.017 59.6599 221.017 61.1399C221.057 62.6199 220.777 64.2199 220.177 65.9399C221.017 65.8999 221.897 65.8599 222.817 65.8199C223.777 65.7799 224.717 65.7799 225.637 65.8199C227.717 65.8999 229.817 65.9399 231.937 65.9399C234.057 65.9399 236.237 65.9599 238.477 65.9999C240.317 66.0399 242.157 65.8999 243.997 65.5799C245.837 65.2599 247.517 64.8199 249.037 64.2599ZM296.1 27.6599C296.18 25.8599 296.06 24.4599 295.74 23.4599C295.42 22.4199 294.84 21.6999 294 21.2999L294.3 20.5799C296.78 20.5799 298.7 20.7199 300.06 20.9999C301.42 21.2399 302.42 21.7599 303.06 22.5599C303.62 23.1999 304.02 23.9599 304.26 24.8399C304.54 25.6799 304.64 26.8399 304.56 28.3199C304.56 28.5199 304.54 28.7999 304.5 29.1599C304.5 29.5199 304.48 29.8999 304.44 30.2999C304.44 30.6599 304.42 31.0399 304.38 31.4399C304.38 31.7999 304.38 32.0999 304.38 32.3399C304.3 33.2199 304.24 34.0599 304.2 34.8599C304.2 35.6599 304.2 36.4799 304.2 37.3199C304.24 38.1599 304.28 39.0599 304.32 40.0199C304.36 40.9399 304.4 41.9799 304.44 43.1399C304.52 44.7399 304.2 46.0399 303.48 47.0399C302.76 48.0399 301.82 48.7199 300.66 49.0799C300.06 49.2799 299.32 49.4399 298.44 49.5599C297.56 49.6399 296.78 49.6399 296.1 49.5599C296.22 49.1199 296.32 48.4799 296.4 47.6399C296.48 46.7999 296.5 46.0199 296.46 45.2999L296.34 43.2599C295.7 43.6999 294.94 44.0599 294.06 44.3399C293.22 44.6199 292.18 44.7599 290.94 44.7599C289.74 44.7599 288.58 44.5599 287.46 44.1599C286.38 43.7199 285.58 42.8999 285.06 41.6999C284.78 41.0999 284.62 40.5999 284.58 40.1999C284.54 39.7599 284.56 39.4199 284.64 39.1799C284.76 38.8999 284.92 38.7199 285.12 38.6399C285.32 38.5199 285.54 38.4599 285.78 38.4599C287.38 38.5799 289.12 38.6399 291 38.6399C292.88 38.6399 294.62 38.5399 296.22 38.3399V37.4999L296.1 33.4199C295.5 33.8199 294.78 34.1399 293.94 34.3799C293.1 34.6199 292.1 34.7399 290.94 34.7399C290.18 34.7399 289.42 34.6799 288.66 34.5599C287.94 34.3999 287.3 34.1199 286.74 33.7199C286.02 35.7999 284.92 37.7399 283.44 39.5399C282 41.2999 280.28 42.8999 278.28 44.3399C276.32 45.7399 274.14 46.9399 271.74 47.9399C269.34 48.8999 266.8 49.5999 264.12 50.0399C263.52 50.1199 262.96 50.0799 262.44 49.9199C261.96 49.7199 261.52 49.4599 261.12 49.1399C260.76 48.8199 260.48 48.4599 260.28 48.0599C260.08 47.6199 260 47.2199 260.04 46.8599C260.04 46.7399 260.1 46.6399 260.22 46.5599C260.38 46.4799 260.52 46.4399 260.64 46.4399C263.08 45.5599 265.38 44.5199 267.54 43.3199C269.7 42.0799 271.58 40.7999 273.18 39.4799C274.82 38.1199 276.14 36.7599 277.14 35.3999C278.14 34.0399 278.72 32.7599 278.88 31.5599C278.96 31.0399 278.86 30.6999 278.58 30.5399C278.3 30.3399 278.04 30.2199 277.8 30.1799C277.28 30.1399 276.78 30.0999 276.3 30.0599C275.86 30.0199 275.38 30.0199 274.86 30.0599C274.38 30.0999 273.84 30.1599 273.24 30.2399C272.64 30.2799 271.94 30.3599 271.14 30.4799C270.5 30.5599 269.68 30.7799 268.68 31.1399C267.68 31.4999 266.72 31.6599 265.8 31.6199C264 31.5399 262.8 30.8199 262.2 29.4599C261.6 28.0599 261.3 26.3399 261.3 24.2999C263.34 24.4599 265.24 24.5599 267 24.5999C268.8 24.6399 270.72 24.6199 272.76 24.5399C273.68 24.4999 274.54 24.4399 275.34 24.3599C276.18 24.2399 277.24 24.0599 278.52 23.8199C279.28 23.6999 280.04 23.6399 280.8 23.6399C281.6 23.6399 282.2 23.6799 282.6 23.7599C284.4 24.0799 285.7 24.5799 286.5 25.2599C287.3 25.9399 287.7 27.0399 287.7 28.5599C289.1 28.6399 290.52 28.6599 291.96 28.6199C293.44 28.5799 294.82 28.4799 296.1 28.3199V27.6599ZM296.1 68.9399C296.62 68.8999 297.22 68.8399 297.9 68.7599C298.58 68.6799 299.24 68.5999 299.88 68.5199C300.56 68.4399 301.2 68.3599 301.8 68.2799C302.44 68.1599 302.98 68.0599 303.42 67.9799C304.02 67.8599 304.44 67.9199 304.68 68.1599C304.92 68.3999 304.94 68.7999 304.74 69.3599C304.5 69.9599 304.2 70.5999 303.84 71.2799C303.52 71.9999 303.1 72.6599 302.58 73.2599C302.06 73.8599 301.42 74.3799 300.66 74.8199C299.94 75.2599 299.08 75.5199 298.08 75.5999C296.32 75.7599 294.64 75.8599 293.04 75.8999C291.48 75.9799 289.92 75.9999 288.36 75.9599C286.8 75.9199 285.18 75.8399 283.5 75.7199C281.86 75.5999 280.12 75.4199 278.28 75.1799C276.4 74.9399 274.98 74.3599 274.02 73.4399C273.06 72.5199 272.34 71.4199 271.86 70.1399C271.54 69.3399 271.3 68.6199 271.14 67.9799C270.98 67.3399 270.8 66.5399 270.6 65.5799C270.16 64.7799 269.96 63.8399 270 62.7599C270.08 61.6799 270.34 60.8199 270.78 60.1799C272.34 60.4199 274.18 60.5799 276.3 60.6599C278.46 60.7399 280.68 60.7799 282.96 60.7799C285.28 60.7799 287.54 60.7599 289.74 60.7199C291.98 60.6799 293.98 60.6599 295.74 60.6599C295.86 60.3799 295.94 60.0399 295.98 59.6399C296.06 59.1999 296.12 58.8199 296.16 58.4999C296.2 58.1799 296.06 57.9599 295.74 57.8399C295.46 57.6799 295.16 57.5999 294.84 57.5999C294.48 57.6399 293.84 57.6599 292.92 57.6599C292.04 57.6599 291 57.6799 289.8 57.7199C288.64 57.7199 287.4 57.7399 286.08 57.7799C284.76 57.7799 283.5 57.7999 282.3 57.8399C281.14 57.8399 280.08 57.8599 279.12 57.8999C278.2 57.8999 277.54 57.9199 277.14 57.9599C276.5 58.0399 275.78 58.1199 274.98 58.1999C274.18 58.2399 273.48 58.2599 272.88 58.2599C270.48 58.2599 269.22 56.1599 269.1 51.9599C269.62 51.9999 270.22 52.0399 270.9 52.0799C271.62 52.0799 272.36 52.0799 273.12 52.0799C273.88 52.0799 274.64 52.0799 275.4 52.0799C276.16 52.0399 276.86 51.9999 277.5 51.9599C278.22 51.9199 279.26 51.8799 280.62 51.8399C281.98 51.7999 283.5 51.7599 285.18 51.7199C286.9 51.6399 288.66 51.5999 290.46 51.5999C292.26 51.5599 293.94 51.5599 295.5 51.5999C297.1 51.5999 298.48 51.6399 299.64 51.7199C300.84 51.7599 301.64 51.8599 302.04 52.0199C302.88 52.3399 303.36 52.8599 303.48 53.5799C303.52 53.9799 303.52 54.4799 303.48 55.0799C303.44 55.6399 303.38 56.2199 303.3 56.8199C303.22 57.3799 303.12 57.9199 303 58.4399C302.92 58.9199 302.86 59.2799 302.82 59.5199C302.74 59.9599 302.64 60.4999 302.52 61.1399C302.44 61.7399 302.32 62.3599 302.16 62.9999C302 63.6399 301.76 64.2399 301.44 64.7999C301.16 65.3599 300.78 65.8199 300.3 66.1799C296.98 65.8599 293.46 65.7399 289.74 65.8199C286.02 65.8599 282.16 65.9599 278.16 66.1199C278.16 66.8799 278.3 67.4799 278.58 67.9199C278.9 68.3199 279.52 68.6199 280.44 68.8199C281.36 69.0199 282.44 69.1599 283.68 69.2399C284.96 69.3599 286.28 69.4199 287.64 69.4199C289.04 69.4199 290.46 69.3799 291.9 69.2999C293.38 69.2599 294.78 69.1399 296.1 68.9399ZM347.063 27.6599C347.063 25.8599 346.923 24.4599 346.643 23.4599C346.363 22.4199 345.803 21.6999 344.963 21.2999L345.263 20.5799C347.743 20.5799 349.663 20.7199 351.023 20.9999C352.383 21.2399 353.383 21.7599 354.023 22.5599C354.583 23.1999 354.983 23.9599 355.223 24.8399C355.503 25.6799 355.603 26.8399 355.523 28.3199C355.523 28.5199 355.503 28.9799 355.463 29.6999C355.423 30.4199 355.383 31.1999 355.343 32.0399C355.303 32.8799 355.263 33.6599 355.223 34.3799C355.183 35.0999 355.163 35.5799 355.163 35.8199C355.043 37.9799 354.983 40.1199 354.983 42.2399C355.863 42.0399 356.723 41.8399 357.563 41.6399C358.443 41.3999 359.303 41.1999 360.143 41.0399C360.503 40.9599 360.883 40.9399 361.283 40.9799C361.683 41.0199 362.023 41.1399 362.303 41.3399C362.703 41.6599 363.063 42.0799 363.383 42.5999C363.703 43.0799 363.963 43.5999 364.163 44.1599C364.363 44.6799 364.503 45.1999 364.583 45.7199C364.663 46.1999 364.663 46.6199 364.583 46.9799C364.543 47.2199 364.463 47.4799 364.343 47.7599C364.223 48.0399 364.063 48.3199 363.863 48.5999C363.663 48.8399 363.423 49.0599 363.143 49.2599C362.903 49.4199 362.623 49.4799 362.303 49.4399C361.103 49.3599 359.883 49.2599 358.643 49.1399C357.443 49.0199 356.243 48.9399 355.043 48.8999C355.123 52.1399 355.183 55.3399 355.223 58.4999C355.303 61.6599 355.283 64.8199 355.163 67.9799C355.043 70.6199 354.303 72.5199 352.943 73.6799C351.623 74.8399 350.043 75.4999 348.203 75.6599C347.883 75.6599 347.583 75.6599 347.303 75.6599C347.063 75.6999 346.783 75.6999 346.463 75.6599C346.623 74.2199 346.743 72.4999 346.823 70.4999C346.903 68.4999 346.983 66.2999 347.063 63.8999C345.783 63.8199 344.323 63.7999 342.683 63.8399C341.083 63.8399 339.423 63.8599 337.703 63.8999C335.463 63.9799 333.283 64.1399 331.163 64.3799C329.043 64.6199 327.103 64.8999 325.343 65.2199C324.343 65.4199 323.163 65.6199 321.803 65.8199C320.443 65.9799 319.163 66.0999 317.963 66.1799C316.563 66.2599 315.403 66.2199 314.483 66.0599C313.563 65.8599 312.843 65.4799 312.323 64.9199C311.843 64.3599 311.523 63.5399 311.363 62.4599C311.243 61.3799 311.263 59.9799 311.423 58.2599C312.663 58.2999 314.083 58.3199 315.683 58.3199C317.283 58.3199 318.983 58.3199 320.783 58.3199H321.203C321.163 57.1999 321.123 56.1199 321.083 55.0799C321.043 54.0399 320.983 52.9999 320.903 51.9599C320.863 51.2799 320.763 50.5599 320.603 49.7999C320.483 49.0399 320.303 48.3199 320.063 47.6399C319.823 46.9199 319.543 46.2999 319.223 45.7799C318.903 45.2199 318.543 44.8199 318.143 44.5799V44.0399C318.743 43.7599 319.483 43.5199 320.363 43.3199C321.283 43.0799 322.203 42.9799 323.123 43.0199C324.043 43.0599 324.903 43.2399 325.703 43.5599C326.543 43.8799 327.183 44.4199 327.623 45.1799C328.063 45.9799 328.243 46.9599 328.163 48.1199C328.123 49.2799 328.083 50.4799 328.043 51.7199C328.003 52.7199 327.963 53.7599 327.923 54.8399C327.923 55.8799 327.883 56.9599 327.803 58.0799C329.043 57.9999 330.283 57.9399 331.523 57.8999C332.803 57.8199 334.083 57.7399 335.363 57.6599C337.363 57.5799 339.383 57.4999 341.423 57.4199C343.463 57.3399 345.383 57.3199 347.183 57.3599C347.183 54.6799 347.183 51.9399 347.183 49.1399C347.183 46.3399 347.163 43.6399 347.123 41.0399C347.123 38.4399 347.103 35.9999 347.063 33.7199C347.063 31.3999 347.063 29.3799 347.063 27.6599ZM341.243 46.6199C341.123 47.7799 340.823 48.8399 340.343 49.7999C339.903 50.7599 339.323 51.5399 338.603 52.1399C337.883 52.7399 337.063 53.1399 336.143 53.3399C335.223 53.4999 334.243 53.4199 333.203 53.0999C333.403 52.6199 333.523 52.0199 333.563 51.2999C333.603 50.5399 333.643 49.7799 333.683 49.0199C333.723 47.6999 333.743 46.2999 333.743 44.8199C333.783 43.3399 333.803 41.9199 333.803 40.5599C333.803 39.1599 333.783 37.8999 333.743 36.7799C333.703 35.6599 333.663 34.7799 333.623 34.1399C333.583 33.6199 333.503 33.2799 333.383 33.1199C333.263 32.9599 333.083 32.8599 332.843 32.8199C331.083 32.6599 329.503 32.6399 328.103 32.7599C326.743 32.8399 325.203 33.0199 323.483 33.2999C323.163 33.3799 322.763 33.4799 322.283 33.5999C321.843 33.7199 321.343 33.8599 320.783 34.0199C320.263 34.1399 319.723 34.2399 319.163 34.3199C318.643 34.3999 318.163 34.4399 317.723 34.4399C316.803 34.3999 316.043 34.1399 315.443 33.6599C314.883 33.1799 314.443 32.5599 314.123 31.7999C313.803 31.0399 313.563 30.1599 313.403 29.1599C313.283 28.1599 313.223 27.1399 313.223 26.0999C315.263 26.2599 317.343 26.3599 319.463 26.3999C321.583 26.4399 323.663 26.4199 325.703 26.3399C326.623 26.2999 327.683 26.2399 328.883 26.1599C330.123 26.0399 331.383 25.8599 332.663 25.6199C333.423 25.4999 334.183 25.4399 334.943 25.4399C335.743 25.4399 336.343 25.4799 336.743 25.5599C337.783 25.7199 338.623 25.9599 339.263 26.2799C339.903 26.5599 340.403 26.9599 340.763 27.4799C341.123 27.9599 341.363 28.5799 341.483 29.3399C341.603 30.0999 341.683 31.0399 341.723 32.1599C341.763 33.4399 341.783 34.7399 341.783 36.0599C341.783 37.3799 341.743 38.6799 341.663 39.9599C341.623 41.2399 341.563 42.4599 341.483 43.6199C341.403 44.7399 341.323 45.7399 341.243 46.6199Z" fill="white"/>
<defs>
<filter id="filter0_d_227_364" x="0" y="0" width="513" height="103.536" filterUnits="userSpaceOnUse" color-interpolation-filters="sRGB">
<feFlood flood-opacity="0" result="BackgroundImageFix"/>
<feColorMatrix in="SourceAlpha" type="matrix" values="0 0 0 0 0 0 0 0 0 0 0 0 0 0 0 0 0 0 127 0" result="hardAlpha"/>
<feOffset dy="4"/>
<feGaussianBlur stdDeviation="2"/>
<feComposite in2="hardAlpha" operator="out"/>
<feColorMatrix type="matrix" values="0 0 0 0 0 0 0 0 0 0 0 0 0 0 0 0 0 0 0.25 0"/>
<feBlend mode="normal" in2="BackgroundImageFix" result="effect1_dropShadow_227_364"/>
<feBlend mode="normal" in="SourceGraphic" in2="effect1_dropShadow_227_364" result="shape"/>
</filter>
</defs>
</svg>
