<svg width="1634" height="309" viewBox="0 0 1634 309" fill="none" xmlns="http://www.w3.org/2000/svg">
<path d="M472.882 0H1633.37V220.578L1138.14 309L0 284.187V56.0954L472.882 0Z" fill="#202632"/>
<path d="M621.498 114.668C621.11 123.465 620.981 132.198 621.11 140.866C621.24 149.534 621.369 158.202 621.498 166.871C621.757 175.539 621.886 184.207 621.886 192.875C622.016 201.543 621.886 210.147 621.498 218.686C621.11 227.224 618.717 233.37 614.318 237.122C610.049 240.873 604.938 243.008 598.987 243.526C597.176 243.784 595.3 243.784 593.359 243.526C594.006 238.351 594.523 232.011 594.912 224.507C595.3 217.004 595.558 208.853 595.688 200.055C595.817 191.129 595.882 181.878 595.882 172.304C595.882 162.731 595.817 153.286 595.688 143.971C593.488 145.524 590.836 146.947 587.731 148.241C584.756 149.405 581.521 149.987 578.028 149.987C574.794 149.987 571.947 149.405 569.489 148.241V148.435C569.489 155.55 568.196 161.76 565.608 167.065C563.15 172.369 559.786 176.833 555.517 180.455C551.377 184.078 546.525 186.794 540.962 188.606C535.528 190.417 529.771 191.323 523.69 191.323C516.445 191.323 509.718 190.223 503.508 188.024C497.298 185.824 491.993 182.525 487.594 178.126C483.325 173.728 480.155 168.294 478.085 161.825C476.015 155.356 475.433 147.917 476.339 139.508C476.727 135.238 477.568 130.969 478.862 126.699C480.155 122.301 481.967 118.096 484.295 114.085C486.754 109.945 489.729 106.064 493.222 102.442C496.845 98.819 501.114 95.5846 506.031 92.7384C510.3 90.2802 514.957 88.5984 520.003 87.6927C525.178 86.6577 530.03 86.4637 534.558 87.1105C539.215 87.628 543.161 88.9865 546.396 91.1859C549.63 93.2559 551.571 96.1668 552.218 99.9187C550.536 100.436 548.854 101.018 547.172 101.665C545.619 102.312 544.067 102.959 542.514 103.606C547.56 106.193 552.024 109.557 555.905 113.697C559.915 117.708 563.02 122.365 565.22 127.67C569.231 127.67 573.953 127.476 579.387 127.088C584.95 126.57 590.383 125.859 595.688 124.953C595.558 117.837 595.429 111.174 595.3 104.964C595.3 98.7544 595.3 93.1912 595.3 88.2749C595.3 82.453 594.847 77.9249 593.941 74.6905C593.036 71.3267 591.224 68.998 588.507 67.7042L589.478 65.3754C597.499 65.3754 603.709 65.8283 608.108 66.7339C612.507 67.5101 615.741 69.192 617.811 71.7795C619.622 73.8495 620.916 76.3077 621.692 79.1539C622.598 81.8708 622.921 85.6227 622.663 90.4096C622.663 91.0565 622.598 92.5443 622.469 94.8731C622.339 97.2018 622.21 99.7247 622.08 102.442C621.951 105.158 621.822 107.681 621.692 110.01C621.563 112.339 621.498 113.891 621.498 114.668ZM546.202 148.435C546.202 145.459 545.878 142.419 545.231 139.314C544.584 136.209 543.42 133.233 541.738 130.387C540.186 127.411 538.051 124.629 535.334 122.042C532.617 119.325 529.124 116.996 524.855 115.056C520.327 119.196 516.575 123.724 513.599 128.64C510.753 133.556 509.071 138.925 508.553 144.747C507.648 154.321 509.394 161.502 513.793 166.288C518.192 170.946 524.208 172.757 531.841 171.722C535.981 171.075 539.409 168.811 542.126 164.93C544.973 161.049 546.331 155.55 546.202 148.435ZM725.98 188.606C725.204 188.606 724.428 188.606 723.651 188.606C722.875 188.606 722.099 188.67 721.323 188.8C721.323 191.258 721.323 193.457 721.323 195.398C721.323 197.339 721.323 199.279 721.323 201.22C721.323 203.16 721.258 205.231 721.129 207.43C721.129 209.5 721.064 211.958 720.935 214.804C720.546 223.343 718.541 229.488 714.919 233.24C711.425 236.992 706.703 239.127 700.752 239.644C699.846 239.774 698.553 239.838 696.871 239.838C695.318 239.838 694.024 239.774 692.989 239.644C694.024 233.305 694.671 226.319 694.93 218.686C695.189 210.923 695.318 201.608 695.318 190.74C690.531 191.129 685.744 191.581 680.957 192.099C676.171 192.487 671.06 192.81 665.626 193.069C661.098 193.328 657.346 193.199 654.371 192.681C651.395 192.034 649.066 190.87 647.385 189.188C645.832 187.506 644.797 185.177 644.28 182.202C643.891 179.226 643.956 175.409 644.474 170.752C657.799 172.434 671.384 173.016 685.227 172.498C699.199 171.981 712.849 171.399 726.174 170.752C729.667 170.623 733.549 170.493 737.818 170.364C742.087 170.234 746.422 170.17 750.82 170.17C755.219 170.04 759.489 169.976 763.629 169.976C767.769 169.976 771.391 170.04 774.496 170.17C774.496 162.407 774.431 154.709 774.302 147.076C774.302 139.314 774.237 131.939 774.108 124.953C774.108 117.837 774.043 111.174 773.914 104.964C773.914 98.625 773.914 93.0618 773.914 88.2749C773.914 82.453 773.461 77.9249 772.555 74.6905C771.65 71.3267 769.839 68.998 767.122 67.7042L768.092 65.3754C776.113 65.3754 782.323 65.8283 786.722 66.7339C791.121 67.5101 794.355 69.192 796.425 71.7795C798.237 73.8495 799.53 76.3077 800.307 79.1539C801.212 81.8708 801.536 85.6227 801.277 90.4096C801.277 91.0565 801.212 92.5443 801.083 94.8731C800.953 97.2018 800.824 99.7247 800.695 102.442C800.565 105.158 800.436 107.681 800.307 110.01C800.177 112.339 800.112 113.891 800.112 114.668C799.724 123.465 799.595 132.198 799.724 140.866C799.854 149.534 799.983 158.202 800.112 166.871C800.371 175.539 800.501 184.207 800.501 192.875C800.63 201.543 800.501 210.147 800.112 218.686C799.724 227.224 797.331 233.37 792.932 237.122C788.663 240.873 783.552 243.008 777.601 243.526C775.79 243.784 773.914 243.784 771.973 243.526C772.75 237.186 773.332 229.23 773.72 219.656C774.108 210.082 774.367 199.667 774.496 188.412C771.909 188.282 768.48 188.218 764.211 188.218C760.071 188.088 755.672 188.088 751.014 188.218C746.357 188.218 741.764 188.282 737.236 188.412C732.837 188.412 729.085 188.476 725.98 188.606ZM731.414 113.697C737.365 114.344 742.152 116.479 745.775 120.101C749.527 123.724 751.532 128.64 751.791 134.85C751.92 138.473 751.144 142.031 749.462 145.524C747.909 148.887 745.387 151.928 741.893 154.645C738.53 157.232 734.131 159.367 728.697 161.049C723.393 162.601 717.053 163.377 709.679 163.377C702.046 163.377 695.383 162.666 689.69 161.243C684.127 159.69 679.47 157.62 675.718 155.033C671.966 152.316 669.12 149.211 667.179 145.718C665.368 142.225 664.462 138.408 664.462 134.268C664.462 129.869 665.562 125.794 667.761 122.042C670.09 118.29 673.195 114.991 677.076 112.145C680.957 109.298 685.486 107.099 690.661 105.547C695.965 103.865 701.658 103.024 707.738 103.024C710.455 103.024 713.107 103.283 715.695 103.8C718.412 104.318 720.805 105.094 722.875 106.129C725.075 107.034 726.951 108.134 728.503 109.428C730.056 110.722 731.026 112.145 731.414 113.697ZM752.179 100.113C747.263 99.2072 742.282 98.625 737.236 98.3662C732.19 97.9781 727.209 97.784 722.293 97.784C717.506 97.784 712.849 97.9781 708.32 98.3662C703.792 98.625 699.652 98.8837 695.9 99.1425C690.467 99.66 685.356 100.242 680.569 100.889C675.782 101.536 671.578 101.73 667.955 101.471C655.923 100.695 650.748 93.644 652.43 80.3183C660.969 81.0946 668.861 81.6768 676.106 82.0649C683.351 82.453 690.273 82.6471 696.871 82.6471C697.129 79.6714 696.483 77.0192 694.93 74.6905C693.507 72.2323 690.984 69.9036 687.362 67.7042V65.7636C689.432 64.7286 692.084 63.8876 695.318 63.2407C698.682 62.4645 702.046 62.141 705.409 62.2704C708.773 62.3998 711.878 63.1114 714.725 64.4051C717.7 65.6989 719.835 67.7689 721.129 70.6152C721.776 72.0383 722.034 73.7202 721.905 75.6608C721.905 77.6014 721.581 79.6068 720.935 81.6768C723.134 81.418 725.204 81.1593 727.145 80.9005C729.215 80.6418 731.285 80.383 733.355 80.1243C736.718 79.7361 739.565 79.4127 741.893 79.1539C744.222 78.8952 746.033 78.8305 747.327 78.9599C751.208 79.348 754.184 80.7711 756.254 83.2293C758.454 85.6874 759.747 88.2749 760.135 90.9918C760.524 93.5793 760.071 95.8434 758.777 97.784C757.483 99.7247 755.284 100.501 752.179 100.113ZM713.754 120.684C707.932 121.201 703.598 122.948 700.752 125.923C697.906 128.769 696.612 131.81 696.871 135.044C697 138.537 698.682 141.319 701.916 143.389C705.28 145.459 709.032 146.429 713.172 146.3C718.735 146.171 722.94 144.941 725.786 142.613C728.632 140.155 729.926 137.05 729.667 133.298C729.538 130.581 728.115 127.993 725.398 125.535C722.811 122.948 718.929 121.33 713.754 120.684ZM900.713 179.097C899.549 179.226 898.384 179.291 897.22 179.291C896.185 179.291 895.15 179.291 894.115 179.291C894.244 185.113 894.244 191.064 894.115 197.145C894.115 203.225 893.986 209.112 893.727 214.804C893.339 223.343 891.333 229.488 887.711 233.24C884.218 236.992 879.496 239.127 873.544 239.644C872.639 239.774 871.345 239.838 869.663 239.838C868.11 239.838 866.817 239.774 865.782 239.644C866.817 233.176 867.464 224.766 867.722 214.416C867.981 204.066 868.11 193.069 868.11 181.425C863.712 181.814 859.248 182.202 854.72 182.59C850.192 182.978 845.405 183.301 840.359 183.56C835.831 183.819 832.079 183.754 829.104 183.366C826.128 182.849 823.799 181.684 822.117 179.873C820.565 178.062 819.53 175.474 819.012 172.11C818.624 168.747 818.689 164.283 819.206 158.72C830.074 160.143 841.136 160.79 852.391 160.661C863.647 160.402 874.903 160.014 886.158 159.496C886.935 158.073 887.582 156.65 888.099 155.227C888.617 153.674 889.005 152.251 889.263 150.957C890.04 147.723 890.687 144.747 891.204 142.031C891.851 139.314 892.433 136.726 892.951 134.268C888.811 134.915 884.606 135.691 880.336 136.597C876.196 137.502 872.121 138.279 868.11 138.925C864.229 139.572 860.413 139.96 856.661 140.09C852.909 140.219 849.416 139.896 846.181 139.12C841.912 138.085 838.548 135.82 836.09 132.327C833.761 128.834 832.662 123.853 832.791 117.384C845.599 118.419 857.049 118.614 867.14 117.967C877.231 117.19 886.741 116.479 895.667 115.832C895.797 114.021 895.862 112.209 895.862 110.398C895.862 108.587 895.862 106.711 895.862 104.77C895.862 103.088 895.409 101.989 894.503 101.471C893.727 100.954 892.951 100.63 892.174 100.501C889.328 100.372 886.87 100.307 884.8 100.307C882.73 100.177 880.725 100.177 878.784 100.307C876.973 100.307 875.032 100.436 872.962 100.695C870.892 100.824 868.499 101.083 865.782 101.471C863.712 101.73 860.801 102.183 857.049 102.83C853.426 103.477 850.127 103.735 847.152 103.606C841.33 103.347 837.448 100.954 835.508 96.4256C833.567 91.7681 832.597 86.0109 832.597 79.1539C842.429 79.9302 852.844 80.3183 863.841 80.3183C874.838 80.3183 885.317 79.6068 895.279 78.1836C897.737 77.7955 900.066 77.6014 902.266 77.6014C904.465 77.6014 906.212 77.7308 907.505 77.9896C913.327 79.0246 917.532 81.0946 920.119 84.1996C922.707 87.1752 923.871 92.2209 923.613 99.3365C923.224 109.557 922.384 118.549 921.09 126.311C919.925 133.945 918.308 140.931 916.238 147.27C915.462 149.47 914.621 151.54 913.715 153.48C912.81 155.292 911.775 156.909 910.61 158.332C913.845 158.202 917.209 158.138 920.702 158.138C924.195 158.008 927.623 157.944 930.987 157.944C934.48 157.944 937.779 157.944 940.884 157.944C943.989 157.944 946.771 158.008 949.229 158.138C949.1 144.553 948.97 131.616 948.841 119.325C948.711 107.034 948.647 96.6843 948.647 88.2749C948.647 82.453 948.194 77.9249 947.288 74.6905C946.383 71.3267 944.571 68.998 941.855 67.7042L942.825 65.3754C950.846 65.3754 957.056 65.8283 961.455 66.7339C965.854 67.5101 969.088 69.192 971.158 71.7795C972.969 73.8495 974.263 76.3077 975.039 79.1539C975.945 81.8708 976.268 85.6227 976.01 90.4096C976.01 91.0565 975.945 92.5443 975.816 94.8731C975.686 97.2018 975.557 99.7247 975.428 102.442C975.298 105.158 975.169 107.681 975.039 110.01C974.91 112.339 974.845 113.891 974.845 114.668C974.457 123.465 974.328 132.198 974.457 140.866C974.587 149.534 974.716 158.202 974.845 166.871C975.104 175.539 975.233 184.207 975.233 192.875C975.363 201.543 975.233 210.147 974.845 218.686C974.457 227.224 972.064 233.37 967.665 237.122C963.396 240.873 958.285 243.008 952.334 243.526C950.523 243.784 948.647 243.784 946.706 243.526C947.612 236.281 948.259 226.966 948.647 215.581C949.035 204.195 949.229 191.969 949.229 178.903C946.641 178.773 943.213 178.708 938.944 178.708C934.804 178.579 930.405 178.579 925.747 178.708C921.09 178.708 916.497 178.773 911.969 178.903C907.57 178.903 903.818 178.967 900.713 179.097ZM1132.31 104.964C1126.74 103.929 1120.99 103.282 1115.03 103.024C1109.08 102.636 1103 102.571 1096.79 102.83C1097.44 104.641 1097.63 106.776 1097.38 109.234C1097.25 111.563 1096.47 114.409 1095.05 117.773L1093.88 120.489C1096.99 122.559 1100.87 124.953 1105.53 127.67C1110.18 130.387 1115.03 133.039 1120.08 135.626C1125.13 138.085 1129.98 140.219 1134.64 142.031C1139.42 143.712 1143.43 144.618 1146.67 144.747C1146.41 149.793 1145.31 154.192 1143.37 157.944C1141.43 161.696 1139.1 164.607 1136.38 166.677C1133.67 168.747 1130.75 169.911 1127.65 170.17C1124.67 170.299 1121.89 169.199 1119.3 166.871C1116.72 164.671 1114.06 162.342 1111.35 159.884C1108.76 157.297 1105.98 154.709 1103 152.122C1100.16 149.534 1097.05 147.076 1093.69 144.747C1090.45 142.289 1086.96 140.09 1083.21 138.149C1079.07 143.583 1074.41 148.435 1069.24 152.704C1064.06 156.973 1058.76 160.596 1053.32 163.572C1047.89 166.418 1042.46 168.617 1037.02 170.17C1031.72 171.593 1026.74 172.24 1022.08 172.11C1019.75 172.11 1017.68 171.658 1015.87 170.752C1014.19 169.846 1012.76 168.811 1011.6 167.647C1010.56 166.353 1009.79 165.059 1009.27 163.766C1008.88 162.472 1008.82 161.372 1009.08 160.467C1009.46 159.69 1010.18 159.302 1011.21 159.302C1013.8 159.043 1017.36 158.138 1021.88 156.585C1026.41 155.033 1030.62 153.027 1034.5 150.569C1038.51 148.111 1042.33 145.2 1045.95 141.836C1049.7 138.343 1053.06 134.591 1056.04 130.581C1059.14 126.57 1061.86 122.365 1064.19 117.967C1066.52 113.568 1068.27 109.169 1069.43 104.77C1062.83 105.417 1056.75 105.935 1051.19 106.323C1045.75 106.582 1040.97 106.582 1036.83 106.323C1029.71 105.805 1024.73 103.477 1021.88 99.3365C1019.17 95.1965 1018.13 89.4393 1018.78 82.0649C1038.06 82.9705 1055.2 83.294 1070.21 83.0352C1085.34 82.7765 1098.67 81.9355 1110.18 80.5124C1113.55 80.1243 1116.39 79.8008 1118.72 79.5421C1121.18 79.1539 1123.12 79.0246 1124.54 79.1539C1129.2 79.6714 1132.76 81.418 1135.22 84.3937C1137.81 87.2399 1139.36 90.2802 1139.88 93.5146C1140.52 96.749 1140.2 99.5953 1138.9 102.053C1137.61 104.512 1135.41 105.482 1132.31 104.964ZM1020.91 222.373C1016.39 222.632 1012.63 222.437 1009.66 221.791C1006.68 221.144 1004.35 219.785 1002.67 217.715C1001.12 215.516 1000.08 212.605 999.567 208.982C999.179 205.231 999.244 200.508 999.761 194.816C1013.35 196.239 1026.61 197.274 1039.54 197.921C1052.48 198.438 1065.29 198.697 1077.97 198.697C1090.78 198.697 1103.59 198.374 1116.39 197.727C1129.2 196.95 1142.4 195.851 1155.98 194.428C1160.12 203.743 1160.83 210.923 1158.12 215.969C1155.4 221.014 1149.32 223.02 1139.88 221.985C1120.21 219.915 1100.61 219.138 1081.07 219.656C1061.54 220.173 1041.48 221.079 1020.91 222.373Z" fill="white"/>
</svg>
