<svg width="1660" height="335" viewBox="0 0 1660 335" fill="none" xmlns="http://www.w3.org/2000/svg">
<g filter="url(#filter0_d_469_5)">
<path d="M485.882 0H1646.37V220.578L1151.14 309L13 284.187V56.0954L485.882 0Z" fill="#202632"/>
</g>
<path d="M634.498 114.668C634.11 123.465 633.981 132.198 634.11 140.866C634.24 149.534 634.369 158.202 634.498 166.871C634.757 175.539 634.886 184.207 634.886 192.875C635.016 201.543 634.886 210.147 634.498 218.686C634.11 227.224 631.717 233.37 627.318 237.122C623.049 240.873 617.938 243.008 611.987 243.526C610.176 243.784 608.3 243.784 606.359 243.526C607.006 238.351 607.523 232.011 607.912 224.507C608.3 217.004 608.558 208.853 608.688 200.055C608.817 191.129 608.882 181.878 608.882 172.304C608.882 162.731 608.817 153.286 608.688 143.971C606.488 145.524 603.836 146.947 600.731 148.241C597.756 149.405 594.521 149.987 591.028 149.987C587.794 149.987 584.947 149.405 582.489 148.241V148.435C582.489 155.55 581.196 161.76 578.608 167.065C576.15 172.369 572.786 176.833 568.517 180.455C564.377 184.078 559.525 186.794 553.962 188.606C548.528 190.417 542.771 191.323 536.69 191.323C529.445 191.323 522.718 190.223 516.508 188.024C510.298 185.824 504.993 182.525 500.594 178.126C496.325 173.728 493.155 168.294 491.085 161.825C489.015 155.356 488.433 147.917 489.339 139.508C489.727 135.238 490.568 130.969 491.862 126.699C493.155 122.301 494.967 118.096 497.295 114.085C499.754 109.945 502.729 106.064 506.222 102.442C509.845 98.819 514.114 95.5846 519.031 92.7384C523.3 90.2802 527.957 88.5984 533.003 87.6927C538.178 86.6577 543.03 86.4637 547.558 87.1105C552.215 87.628 556.161 88.9865 559.396 91.1859C562.63 93.2559 564.571 96.1668 565.218 99.9187C563.536 100.436 561.854 101.018 560.172 101.665C558.619 102.312 557.067 102.959 555.514 103.606C560.56 106.193 565.024 109.557 568.905 113.697C572.915 117.708 576.02 122.365 578.22 127.67C582.231 127.67 586.953 127.476 592.387 127.088C597.95 126.57 603.383 125.859 608.688 124.953C608.558 117.837 608.429 111.174 608.3 104.964C608.3 98.7544 608.3 93.1912 608.3 88.2749C608.3 82.453 607.847 77.9249 606.941 74.6905C606.036 71.3267 604.224 68.998 601.507 67.7042L602.478 65.3754C610.499 65.3754 616.709 65.8283 621.108 66.7339C625.507 67.5101 628.741 69.192 630.811 71.7795C632.622 73.8495 633.916 76.3077 634.692 79.1539C635.598 81.8708 635.921 85.6227 635.663 90.4096C635.663 91.0565 635.598 92.5443 635.469 94.8731C635.339 97.2018 635.21 99.7247 635.08 102.442C634.951 105.158 634.822 107.681 634.692 110.01C634.563 112.339 634.498 113.891 634.498 114.668ZM559.202 148.435C559.202 145.459 558.878 142.419 558.231 139.314C557.584 136.209 556.42 133.233 554.738 130.387C553.186 127.411 551.051 124.629 548.334 122.042C545.617 119.325 542.124 116.996 537.855 115.056C533.327 119.196 529.575 123.724 526.599 128.64C523.753 133.556 522.071 138.925 521.553 144.747C520.648 154.321 522.394 161.502 526.793 166.288C531.192 170.946 537.208 172.757 544.841 171.722C548.981 171.075 552.409 168.811 555.126 164.93C557.973 161.049 559.331 155.55 559.202 148.435ZM738.98 188.606C738.204 188.606 737.428 188.606 736.651 188.606C735.875 188.606 735.099 188.67 734.323 188.8C734.323 191.258 734.323 193.457 734.323 195.398C734.323 197.339 734.323 199.279 734.323 201.22C734.323 203.16 734.258 205.231 734.129 207.43C734.129 209.5 734.064 211.958 733.935 214.804C733.546 223.343 731.541 229.488 727.919 233.24C724.425 236.992 719.703 239.127 713.752 239.644C712.846 239.774 711.553 239.838 709.871 239.838C708.318 239.838 707.024 239.774 705.989 239.644C707.024 233.305 707.671 226.319 707.93 218.686C708.189 210.923 708.318 201.608 708.318 190.74C703.531 191.129 698.744 191.581 693.957 192.099C689.171 192.487 684.06 192.81 678.626 193.069C674.098 193.328 670.346 193.199 667.371 192.681C664.395 192.034 662.066 190.87 660.385 189.188C658.832 187.506 657.797 185.177 657.28 182.202C656.891 179.226 656.956 175.409 657.474 170.752C670.799 172.434 684.384 173.016 698.227 172.498C712.199 171.981 725.849 171.399 739.174 170.752C742.667 170.623 746.549 170.493 750.818 170.364C755.087 170.234 759.422 170.17 763.82 170.17C768.219 170.04 772.489 169.976 776.629 169.976C780.769 169.976 784.391 170.04 787.496 170.17C787.496 162.407 787.431 154.709 787.302 147.076C787.302 139.314 787.237 131.939 787.108 124.953C787.108 117.837 787.043 111.174 786.914 104.964C786.914 98.625 786.914 93.0618 786.914 88.2749C786.914 82.453 786.461 77.9249 785.555 74.6905C784.65 71.3267 782.839 68.998 780.122 67.7042L781.092 65.3754C789.113 65.3754 795.323 65.8283 799.722 66.7339C804.121 67.5101 807.355 69.192 809.425 71.7795C811.237 73.8495 812.53 76.3077 813.307 79.1539C814.212 81.8708 814.536 85.6227 814.277 90.4096C814.277 91.0565 814.212 92.5443 814.083 94.8731C813.953 97.2018 813.824 99.7247 813.695 102.442C813.565 105.158 813.436 107.681 813.307 110.01C813.177 112.339 813.112 113.891 813.112 114.668C812.724 123.465 812.595 132.198 812.724 140.866C812.854 149.534 812.983 158.202 813.112 166.871C813.371 175.539 813.501 184.207 813.501 192.875C813.63 201.543 813.501 210.147 813.112 218.686C812.724 227.224 810.331 233.37 805.932 237.122C801.663 240.873 796.552 243.008 790.601 243.526C788.79 243.784 786.914 243.784 784.973 243.526C785.75 237.186 786.332 229.23 786.72 219.656C787.108 210.082 787.367 199.667 787.496 188.412C784.909 188.282 781.48 188.218 777.211 188.218C773.071 188.088 768.672 188.088 764.014 188.218C759.357 188.218 754.764 188.282 750.236 188.412C745.837 188.412 742.085 188.476 738.98 188.606ZM744.414 113.697C750.365 114.344 755.152 116.479 758.775 120.101C762.527 123.724 764.532 128.64 764.791 134.85C764.92 138.473 764.144 142.031 762.462 145.524C760.909 148.887 758.387 151.928 754.893 154.645C751.53 157.232 747.131 159.367 741.697 161.049C736.393 162.601 730.053 163.377 722.679 163.377C715.046 163.377 708.383 162.666 702.69 161.243C697.127 159.69 692.47 157.62 688.718 155.033C684.966 152.316 682.12 149.211 680.179 145.718C678.368 142.225 677.462 138.408 677.462 134.268C677.462 129.869 678.562 125.794 680.761 122.042C683.09 118.29 686.195 114.991 690.076 112.145C693.957 109.298 698.486 107.099 703.661 105.547C708.965 103.865 714.658 103.024 720.738 103.024C723.455 103.024 726.107 103.283 728.695 103.8C731.412 104.318 733.805 105.094 735.875 106.129C738.075 107.034 739.951 108.134 741.503 109.428C743.056 110.722 744.026 112.145 744.414 113.697ZM765.179 100.113C760.263 99.2072 755.282 98.625 750.236 98.3662C745.19 97.9781 740.209 97.784 735.293 97.784C730.506 97.784 725.849 97.9781 721.32 98.3662C716.792 98.625 712.652 98.8837 708.9 99.1425C703.467 99.66 698.356 100.242 693.569 100.889C688.782 101.536 684.578 101.73 680.955 101.471C668.923 100.695 663.748 93.644 665.43 80.3183C673.969 81.0946 681.861 81.6768 689.106 82.0649C696.351 82.453 703.273 82.6471 709.871 82.6471C710.129 79.6714 709.483 77.0192 707.93 74.6905C706.507 72.2323 703.984 69.9036 700.362 67.7042V65.7636C702.432 64.7286 705.084 63.8876 708.318 63.2407C711.682 62.4645 715.046 62.141 718.409 62.2704C721.773 62.3998 724.878 63.1114 727.725 64.4051C730.7 65.6989 732.835 67.7689 734.129 70.6152C734.776 72.0383 735.034 73.7202 734.905 75.6608C734.905 77.6014 734.581 79.6068 733.935 81.6768C736.134 81.418 738.204 81.1593 740.145 80.9005C742.215 80.6418 744.285 80.383 746.355 80.1243C749.718 79.7361 752.565 79.4127 754.893 79.1539C757.222 78.8952 759.033 78.8305 760.327 78.9599C764.208 79.348 767.184 80.7711 769.254 83.2293C771.454 85.6874 772.747 88.2749 773.135 90.9918C773.524 93.5793 773.071 95.8434 771.777 97.784C770.483 99.7247 768.284 100.501 765.179 100.113ZM726.754 120.684C720.932 121.201 716.598 122.948 713.752 125.923C710.906 128.769 709.612 131.81 709.871 135.044C710 138.537 711.682 141.319 714.916 143.389C718.28 145.459 722.032 146.429 726.172 146.3C731.735 146.171 735.94 144.941 738.786 142.613C741.632 140.155 742.926 137.05 742.667 133.298C742.538 130.581 741.115 127.993 738.398 125.535C735.811 122.948 731.929 121.33 726.754 120.684ZM913.713 179.097C912.549 179.226 911.384 179.291 910.22 179.291C909.185 179.291 908.15 179.291 907.115 179.291C907.244 185.113 907.244 191.064 907.115 197.145C907.115 203.225 906.986 209.112 906.727 214.804C906.339 223.343 904.333 229.488 900.711 233.24C897.218 236.992 892.496 239.127 886.544 239.644C885.639 239.774 884.345 239.838 882.663 239.838C881.11 239.838 879.817 239.774 878.782 239.644C879.817 233.176 880.464 224.766 880.722 214.416C880.981 204.066 881.11 193.069 881.11 181.425C876.712 181.814 872.248 182.202 867.72 182.59C863.192 182.978 858.405 183.301 853.359 183.56C848.831 183.819 845.079 183.754 842.104 183.366C839.128 182.849 836.799 181.684 835.117 179.873C833.565 178.062 832.53 175.474 832.012 172.11C831.624 168.747 831.689 164.283 832.206 158.72C843.074 160.143 854.136 160.79 865.391 160.661C876.647 160.402 887.903 160.014 899.158 159.496C899.935 158.073 900.582 156.65 901.099 155.227C901.617 153.674 902.005 152.251 902.263 150.957C903.04 147.723 903.687 144.747 904.204 142.031C904.851 139.314 905.433 136.726 905.951 134.268C901.811 134.915 897.606 135.691 893.336 136.597C889.196 137.502 885.121 138.279 881.11 138.925C877.229 139.572 873.413 139.96 869.661 140.09C865.909 140.219 862.416 139.896 859.181 139.12C854.912 138.085 851.548 135.82 849.09 132.327C846.761 128.834 845.662 123.853 845.791 117.384C858.599 118.419 870.049 118.614 880.14 117.967C890.231 117.19 899.741 116.479 908.667 115.832C908.797 114.021 908.862 112.209 908.862 110.398C908.862 108.587 908.862 106.711 908.862 104.77C908.862 103.088 908.409 101.989 907.503 101.471C906.727 100.954 905.951 100.63 905.174 100.501C902.328 100.372 899.87 100.307 897.8 100.307C895.73 100.177 893.725 100.177 891.784 100.307C889.973 100.307 888.032 100.436 885.962 100.695C883.892 100.824 881.499 101.083 878.782 101.471C876.712 101.73 873.801 102.183 870.049 102.83C866.426 103.477 863.127 103.735 860.152 103.606C854.33 103.347 850.448 100.954 848.508 96.4256C846.567 91.7681 845.597 86.0109 845.597 79.1539C855.429 79.9302 865.844 80.3183 876.841 80.3183C887.838 80.3183 898.317 79.6068 908.279 78.1836C910.737 77.7955 913.066 77.6014 915.266 77.6014C917.465 77.6014 919.212 77.7308 920.505 77.9896C926.327 79.0246 930.532 81.0946 933.119 84.1996C935.707 87.1752 936.871 92.2209 936.613 99.3365C936.224 109.557 935.384 118.549 934.09 126.311C932.925 133.945 931.308 140.931 929.238 147.27C928.462 149.47 927.621 151.54 926.715 153.48C925.81 155.292 924.775 156.909 923.61 158.332C926.845 158.202 930.209 158.138 933.702 158.138C937.195 158.008 940.623 157.944 943.987 157.944C947.48 157.944 950.779 157.944 953.884 157.944C956.989 157.944 959.771 158.008 962.229 158.138C962.1 144.553 961.97 131.616 961.841 119.325C961.711 107.034 961.647 96.6843 961.647 88.2749C961.647 82.453 961.194 77.9249 960.288 74.6905C959.383 71.3267 957.571 68.998 954.855 67.7042L955.825 65.3754C963.846 65.3754 970.056 65.8283 974.455 66.7339C978.854 67.5101 982.088 69.192 984.158 71.7795C985.969 73.8495 987.263 76.3077 988.039 79.1539C988.945 81.8708 989.268 85.6227 989.01 90.4096C989.01 91.0565 988.945 92.5443 988.816 94.8731C988.686 97.2018 988.557 99.7247 988.428 102.442C988.298 105.158 988.169 107.681 988.039 110.01C987.91 112.339 987.845 113.891 987.845 114.668C987.457 123.465 987.328 132.198 987.457 140.866C987.587 149.534 987.716 158.202 987.845 166.871C988.104 175.539 988.233 184.207 988.233 192.875C988.363 201.543 988.233 210.147 987.845 218.686C987.457 227.224 985.064 233.37 980.665 237.122C976.396 240.873 971.285 243.008 965.334 243.526C963.523 243.784 961.647 243.784 959.706 243.526C960.612 236.281 961.259 226.966 961.647 215.581C962.035 204.195 962.229 191.969 962.229 178.903C959.641 178.773 956.213 178.708 951.944 178.708C947.804 178.579 943.405 178.579 938.747 178.708C934.09 178.708 929.497 178.773 924.969 178.903C920.57 178.903 916.818 178.967 913.713 179.097ZM1145.31 104.964C1139.74 103.929 1133.99 103.282 1128.03 103.024C1122.08 102.636 1116 102.571 1109.79 102.83C1110.44 104.641 1110.63 106.776 1110.38 109.234C1110.25 111.563 1109.47 114.409 1108.05 117.773L1106.88 120.489C1109.99 122.559 1113.87 124.953 1118.53 127.67C1123.18 130.387 1128.03 133.039 1133.08 135.626C1138.13 138.085 1142.98 140.219 1147.64 142.031C1152.42 143.712 1156.43 144.618 1159.67 144.747C1159.41 149.793 1158.31 154.192 1156.37 157.944C1154.43 161.696 1152.1 164.607 1149.38 166.677C1146.67 168.747 1143.75 169.911 1140.65 170.17C1137.67 170.299 1134.89 169.199 1132.3 166.871C1129.72 164.671 1127.06 162.342 1124.35 159.884C1121.76 157.297 1118.98 154.709 1116 152.122C1113.16 149.534 1110.05 147.076 1106.69 144.747C1103.45 142.289 1099.96 140.09 1096.21 138.149C1092.07 143.583 1087.41 148.435 1082.24 152.704C1077.06 156.973 1071.76 160.596 1066.32 163.572C1060.89 166.418 1055.46 168.617 1050.02 170.17C1044.72 171.593 1039.74 172.24 1035.08 172.11C1032.75 172.11 1030.68 171.658 1028.87 170.752C1027.19 169.846 1025.76 168.811 1024.6 167.647C1023.56 166.353 1022.79 165.059 1022.27 163.766C1021.88 162.472 1021.82 161.372 1022.08 160.467C1022.46 159.69 1023.18 159.302 1024.21 159.302C1026.8 159.043 1030.36 158.138 1034.88 156.585C1039.41 155.033 1043.62 153.027 1047.5 150.569C1051.51 148.111 1055.33 145.2 1058.95 141.836C1062.7 138.343 1066.06 134.591 1069.04 130.581C1072.14 126.57 1074.86 122.365 1077.19 117.967C1079.52 113.568 1081.27 109.169 1082.43 104.77C1075.83 105.417 1069.75 105.935 1064.19 106.323C1058.75 106.582 1053.97 106.582 1049.83 106.323C1042.71 105.805 1037.73 103.477 1034.88 99.3365C1032.17 95.1965 1031.13 89.4393 1031.78 82.0649C1051.06 82.9705 1068.2 83.294 1083.21 83.0352C1098.34 82.7765 1111.67 81.9355 1123.18 80.5124C1126.55 80.1243 1129.39 79.8008 1131.72 79.5421C1134.18 79.1539 1136.12 79.0246 1137.54 79.1539C1142.2 79.6714 1145.76 81.418 1148.22 84.3937C1150.81 87.2399 1152.36 90.2802 1152.88 93.5146C1153.52 96.749 1153.2 99.5953 1151.9 102.053C1150.61 104.512 1148.41 105.482 1145.31 104.964ZM1033.91 222.373C1029.39 222.632 1025.63 222.437 1022.66 221.791C1019.68 221.144 1017.35 219.785 1015.67 217.715C1014.12 215.516 1013.08 212.605 1012.57 208.982C1012.18 205.231 1012.24 200.508 1012.76 194.816C1026.35 196.239 1039.61 197.274 1052.54 197.921C1065.48 198.438 1078.29 198.697 1090.97 198.697C1103.78 198.697 1116.59 198.374 1129.39 197.727C1142.2 196.95 1155.4 195.851 1168.98 194.428C1173.12 203.743 1173.83 210.923 1171.12 215.969C1168.4 221.014 1162.32 223.02 1152.88 221.985C1133.21 219.915 1113.61 219.138 1094.07 219.656C1074.54 220.173 1054.48 221.079 1033.91 222.373Z" fill="white"/>
<defs>
<filter id="filter0_d_469_5" x="0.0624371" y="0" width="1659.24" height="334.875" filterUnits="userSpaceOnUse" color-interpolation-filters="sRGB">
<feFlood flood-opacity="0" result="BackgroundImageFix"/>
<feColorMatrix in="SourceAlpha" type="matrix" values="0 0 0 0 0 0 0 0 0 0 0 0 0 0 0 0 0 0 127 0" result="hardAlpha"/>
<feOffset dy="12.9376"/>
<feGaussianBlur stdDeviation="6.46878"/>
<feComposite in2="hardAlpha" operator="out"/>
<feColorMatrix type="matrix" values="0 0 0 0 0 0 0 0 0 0 0 0 0 0 0 0 0 0 0.25 0"/>
<feBlend mode="normal" in2="BackgroundImageFix" result="effect1_dropShadow_469_5"/>
<feBlend mode="normal" in="SourceGraphic" in2="effect1_dropShadow_469_5" result="shape"/>
</filter>
</defs>
</svg>
