<svg width="15" height="17" viewBox="0 0 15 17" fill="none" xmlns="http://www.w3.org/2000/svg">
<path d="M12.9545 6.7914V4.49178C12.9838 3.32687 12.4264 2.20024 11.4041 1.35843C10.3819 0.516628 8.97812 0.0281896 7.5 0C6.02188 0.0281896 4.61812 0.516628 3.59588 1.35843C2.57364 2.20024 2.01617 3.32687 2.04545 4.49178V6.7914H0V15.9254C0 16.2104 0.143668 16.4837 0.3994 16.6853C0.655131 16.8868 1.00198 17 1.36364 17H13.6364C13.998 17 14.3449 16.8868 14.6006 16.6853C14.8563 16.4837 15 16.2104 15 15.9254V6.7914H12.9545ZM8.18182 12.2879V13.7762H6.81818V12.2396C6.48624 12.105 6.22267 11.885 6.07121 11.6161C5.91976 11.3472 5.88953 11.0456 5.98553 10.7613C6.08153 10.477 6.298 10.2272 6.59901 10.0532C6.90003 9.87917 7.26749 9.79152 7.64042 9.80474C8.01335 9.81797 8.36934 9.93128 8.6493 10.1259C8.92927 10.3205 9.11638 10.5847 9.17959 10.8746C9.2428 11.1645 9.17832 11.4628 8.99683 11.7198C8.81534 11.9769 8.52776 12.1774 8.18182 12.2879ZM11.5909 6.7914H3.40909V4.49178C3.37969 3.61182 3.79347 2.75846 4.56001 2.11816C5.32655 1.47786 6.38353 1.10268 7.5 1.07459C8.61647 1.10268 9.67345 1.47786 10.44 2.11816C11.2065 2.75846 11.6203 3.61182 11.5909 4.49178V6.7914Z" fill="black"/>
</svg>
